<svg xmlns="http://www.w3.org/2000/svg" height="80pt" viewBox="0 -10 80.109 80" width="80pt"><path d="M325.332-159.558H16c-8.832 0-16-7.168-16-16s7.168-16 16-16h309.332c8.832 0 16 7.168 16 16s-7.168 16-16 16zm0 0"/><path d="M240-74.226c-4.098 0-8.191-1.554-11.309-4.691-6.25-6.25-6.25-16.383 0-22.637l74.028-74.023-74.028-74.028c-6.25-6.25-6.25-16.386 0-22.636 6.254-6.25 16.387-6.25 22.637 0l85.332 85.336c6.25 6.25 6.25 16.382 0 22.632L251.328-78.94A15.88 15.88 0 0 1 240-74.226zm0 0"/><path d="M256 59.11C158.91 59.11 73.195.7 37.59-89.714c-3.242-8.191.808-17.492 9.023-20.734 8.192-3.2 17.516.789 20.758 9.046C98.113-23.343 172.161 27.11 256 27.11c111.742 0 202.668-90.926 202.668-202.668S367.742-378.226 256-378.226c-83.84 0-157.887 50.453-188.629 128.512-3.266 8.258-12.566 12.246-20.758 9.047-8.215-3.242-12.265-12.543-9.023-20.735C73.195-351.816 158.91-410.226 256-410.226c129.387 0 234.668 105.281 234.668 234.668S385.387 59.11 256 59.11zm0 0"/><path style="fill:#55d400;stroke-width:.06928766" d="M37.53 58.878c-10.974-.621-20.589-7.73-24.887-18.4-.292-.725-.348-.934-.35-1.312-.01-1.805 2.067-2.702 3.282-1.417.168.179.357.526.573 1.054 1.924 4.715 4.908 8.611 8.736 11.408 7.523 5.497 17.47 6.202 25.63 1.814a25.253 25.253 0 0 0 4.339-2.941c.903-.752 2.98-2.929 3.722-3.9a26.684 26.684 0 0 0 5.09-11.587c.523-2.987.523-6.424-.002-9.395-1.432-8.104-6.467-15.039-13.556-18.667C40.59.663 29.082 2.65 21.595 10.457c-2.27 2.366-4.044 5.125-5.357 8.33-.346.843-.448 1.024-.74 1.307-.757.737-1.801.745-2.572.021a1.934 1.934 0 0 1-.633-1.487c.003-.463.236-1.142.912-2.65.77-1.717 2.282-4.264 3.401-5.727 2.693-3.522 5.9-6.25 9.657-8.216a27.726 27.726 0 0 1 22.7-1.382c8.982 3.4 15.855 11.37 18.13 21.024.667 2.835.924 5.568.804 8.568-.373 9.296-4.919 17.89-12.331 23.309a27.907 27.907 0 0 1-3.748 2.291c-3.55 1.826-7.123 2.798-11.17 3.037-1.31.078-1.677.078-3.119-.004z"/><path style="fill:#2fa75e;fill-opacity:0;stroke-width:.55255258" d="M234.696-75.422c-4.51-1.67-8.527-5.996-9.803-10.554-.93-3.319-.448-8.295 1.102-11.38.846-1.685 10.534-11.777 31.122-32.419l29.893-29.971-137.565-.143-137.565-.142-2.813-1.484c-9.902-5.225-11.659-18.188-3.463-25.557 5.091-4.577-8.741-4.178 144.915-4.178h137.062l-30.722-30.805c-27.782-27.857-30.809-31.066-31.623-33.528-3.432-10.387 4.12-21.005 14.886-20.926 6.688.05 4.56-1.82 53.478 47.014 35.769 35.709 44.938 45.15 45.994 47.362 1.872 3.918 1.857 9.505-.035 13.29-1.818 3.636-89.441 91.245-92.844 92.83-2.828 1.316-9.214 1.63-12.02.591z" fill="none"/><path style="fill:#2fa75e;fill-opacity:0;stroke-width:.55255258" d="M232.915-76.412c-7.865-4.091-10.822-13.169-6.864-21.07.487-.973 14.469-15.38 31.07-32.016l30.184-30.248-137.574-.143-137.575-.142-2.573-1.19c-8.202-3.79-11.603-13.871-7.329-21.724 1.709-3.14 3.584-4.944 7.075-6.812l2.275-1.217 137.846-.143 137.846-.142-30.21-30.248c-33.372-33.415-32.676-32.576-32.676-39.365 0-6.234 3.23-11.405 8.839-14.15 4.048-1.98 9.328-2.068 13.262-.22 2.132 1.001 11.884 10.44 46.995 45.483 31.988 31.927 44.736 45 45.853 47.028 1.276 2.316 1.55 3.486 1.557 6.676.017 7.39 2.758 4.244-46.987 53.923-25.399 25.365-45.932 45.44-47.092 46.04-1.29.667-3.6 1.152-6.2 1.302-3.862.223-4.389.113-7.722-1.622z" fill="none"/><path style="fill:#124125;fill-opacity:.94509804;stroke-width:.55255258" d="M234.696-75.422c-4.51-1.67-8.527-5.996-9.803-10.554-.93-3.319-.448-8.295 1.102-11.38.846-1.685 10.534-11.777 31.122-32.419l29.893-29.971-137.565-.143-137.565-.142-2.813-1.484c-9.902-5.225-11.659-18.188-3.463-25.557 5.091-4.577-8.741-4.178 144.915-4.178h137.062l-30.722-30.805c-27.782-27.857-30.809-31.066-31.623-33.528-3.432-10.387 4.12-21.005 14.886-20.926 6.688.05 4.56-1.82 53.478 47.014 35.769 35.709 44.938 45.15 45.994 47.362 1.872 3.918 1.857 9.505-.035 13.29-1.818 3.636-89.441 91.245-92.844 92.83-2.828 1.316-9.214 1.63-12.02.591z"/><path style="fill:#3de928;fill-opacity:1;stroke-width:.06928766" d="M36.361 41.604a2.233 2.233 0 0 1-.887-.98c-.185-.432-.185-1.131.001-1.566.162-.38 1.177-1.5 4.861-5.362l2.651-2.779H39.09c-2.145 0-9.757-.02-16.918-.044l-13.018-.042-.275-.164c-.412-.246-.808-.735-.945-1.164-.141-.444-.112-1.054.068-1.424.2-.41.586-.856.839-.966.43-.187 3.597-.225 19.162-.228l15.053-.004-2.545-2.672c-4.047-4.251-4.94-5.225-5.062-5.519-.143-.347-.141-1.103.003-1.462.293-.724.906-1.176 1.67-1.234.568-.042.763.048 1.465.673.677.603 7.038 7.193 9.12 9.45.888.961 1.668 1.853 1.734 1.982.161.316.166 1.276.007 1.585-.31.605-11.024 11.765-11.492 11.97-.342.15-1.285.12-1.594-.05z"/></svg>