<?xml version="1.0" encoding="UTF-8" standalone="no"?>
<svg
   xmlns:dc="http://purl.org/dc/elements/1.1/"
   xmlns:cc="http://creativecommons.org/ns#"
   xmlns:rdf="http://www.w3.org/1999/02/22-rdf-syntax-ns#"
   xmlns:svg="http://www.w3.org/2000/svg"
   xmlns="http://www.w3.org/2000/svg"
   xmlns:sodipodi="http://sodipodi.sourceforge.net/DTD/sodipodi-0.dtd"
   xmlns:inkscape="http://www.inkscape.org/namespaces/inkscape"
   height="80pt"
   viewBox="0 -10 80.108844 80"
   width="80pt"
   version="1.1"
   id="svg3733"
   sodipodi:docname="acceso.svg"
   inkscape:version="0.92.5 (2060ec1f9f, 2020-04-08)">
  <metadata
     id="metadata3739">
    <rdf:RDF>
      <cc:Work
         rdf:about="">
        <dc:format>image/svg+xml</dc:format>
        <dc:type
           rdf:resource="http://purl.org/dc/dcmitype/StillImage" />
        <dc:title></dc:title>
      </cc:Work>
    </rdf:RDF>
  </metadata>
  <defs
     id="defs3737" />
  <sodipodi:namedview
     pagecolor="#ffffff"
     bordercolor="#666666"
     borderopacity="1"
     objecttolerance="10"
     gridtolerance="10"
     guidetolerance="10"
     inkscape:pageopacity="0"
     inkscape:pageshadow="2"
     inkscape:window-width="1920"
     inkscape:window-height="1057"
     id="namedview3735"
     showgrid="false"
     inkscape:zoom="1.3591837"
     inkscape:cx="326.66667"
     inkscape:cy="326.66667"
     inkscape:window-x="-8"
     inkscape:window-y="-8"
     inkscape:window-maximized="1"
     inkscape:current-layer="svg3733" />
  <path
     d="M 325.33203,-159.55784 H 16 c -8.832031,0 -16,-7.16797 -16,-16 0,-8.83203 7.167969,-16 16,-16 h 309.33203 c 8.83203,0 16,7.16797 16,16 0,8.83203 -7.16797,16 -16,16 z m 0,0"
     id="path3727"
     inkscape:connector-curvature="0" />
  <path
     d="m 240,-74.225805 c -4.09766,0 -8.19141,-1.55469 -11.30859,-4.69141 -6.25,-6.25 -6.25,-16.38281 0,-22.636715 l 74.02734,-74.02344 -74.02734,-74.02734 c -6.25,-6.25 -6.25,-16.38672 0,-22.63672 6.2539,-6.25 16.38671,-6.25 22.63671,0 l 85.33204,85.33593 c 6.25,6.25 6.25,16.38282 0,22.63282 l -85.33203,85.332035 c -3.13672,3.16015 -7.23047,4.71484 -11.32813,4.71484 z m 0,0"
     id="path3729"
     inkscape:connector-curvature="0" />
  <path
     d="m 256,59.110135 c -97.08984,0 -182.804688,-58.41016029 -218.410156,-148.82422 -3.242188,-8.19141 0.808594,-17.492195 9.023437,-20.734385 8.191407,-3.19921 17.515625,0.78907 20.757813,9.04688 C 98.113281,-23.342995 172.16016,27.110135 256,27.110135 c 111.74219,0 202.66797,-90.92578 202.66797,-202.667975 0,-111.74219 -90.92578,-202.66796 -202.66797,-202.66796 -83.83984,0 -157.886719,50.45312 -188.628906,128.51171 -3.265625,8.25781 -12.566406,12.24609 -20.757813,9.04687 -8.214843,-3.24218 -12.265625,-12.54296 -9.023437,-20.73437 C 73.195312,-351.81565 158.91016,-410.2258 256,-410.2258 c 129.38672,0 234.66797,105.28124 234.66797,234.66796 0,129.386725 -105.28125,234.667975 -234.66797,234.667975 z m 0,0"
     id="path3731"
     inkscape:connector-curvature="0" />
  <path
     style="fill:#55d400;stroke-width:0.06928766"
     d="M 37.529396,58.877972 C 26.556486,58.256884 16.941086,51.14785 12.643358,40.47877 c -0.292446,-0.725996 -0.348209,-0.934923 -0.350295,-1.31245 -0.01,-1.805415 2.066855,-2.702253 3.281622,-1.417103 0.168542,0.178307 0.357709,0.526125 0.573067,1.05369 1.924596,4.714703 4.90846,8.611291 8.735916,11.408118 7.523147,5.497371 17.469819,6.201492 25.630482,1.814374 1.564643,-0.841143 2.915275,-1.756841 4.338572,-2.94146 0.903235,-0.751768 2.981045,-2.928944 3.722135,-3.900135 2.611707,-3.42263 4.351453,-7.38363 5.089341,-11.587256 0.524175,-2.98614 0.523772,-6.423633 -0.0011,-9.394506 C 62.231332,16.097947 57.195563,9.1634725 50.107322,5.535136 40.589896,0.66334537 29.081803,2.6497984 21.594796,10.456783 c -2.269371,2.366359 -4.043651,5.125537 -5.357176,8.330928 -0.345288,0.842605 -0.447651,1.023594 -0.738926,1.306509 -0.758071,0.736317 -1.802192,0.744906 -2.573091,0.02117 -0.426732,-0.400624 -0.635801,-0.892248 -0.632513,-1.487347 0.0026,-0.463529 0.236113,-1.14208 0.91216,-2.650149 0.769456,-1.71644 2.282043,-4.263618 3.400743,-5.726815 C 19.298899,6.7289091 22.505399,4.0010244 26.263208,2.0353385 33.31122,-1.651432 41.548012,-2.1528626 48.962282,0.65349039 57.945453,4.0536822 64.8178,12.022857 67.092648,21.67747 c 0.667844,2.834379 0.924403,5.567382 0.80423,8.567067 -0.372448,9.296763 -4.918687,17.890359 -12.331214,23.30926 -1.129735,0.825889 -2.354466,1.574699 -3.747554,2.291283 -3.549819,1.825979 -7.123208,2.797703 -11.169657,3.037405 -1.310591,0.07764 -1.677065,0.07711 -3.119053,-0.0045 z"
     id="path3741"
     inkscape:connector-curvature="0" />
  <path
     style="fill:#2fa75e;fill-opacity:0;stroke-width:0.55255258"
     d="m 234.69558,-75.421945 c -4.50933,-1.67042 -8.52673,-5.99556 -9.803,-10.55397 -0.92925,-3.31895 -0.44728,-8.29478 1.10234,-11.38046 0.84616,-1.68491 10.53424,-11.776575 31.12168,-32.418135 l 29.89306,-29.97163 -137.56488,-0.14249 -137.5649,-0.14247 -2.8125031,-1.48404 c -9.90215903,-5.22493 -11.659024,-18.18807 -3.4636081,-25.55645 5.0913932,-4.5776 -8.7411161,-4.17874 144.9157212,-4.17874 h 137.06136 l -30.72234,-30.8048 c -27.78199,-27.85655 -30.80847,-31.06542 -31.62225,-33.52786 -3.43276,-10.38721 4.12052,-21.0053 14.88567,-20.92568 6.68851,0.0495 4.56084,-1.821 53.47774,47.01335 35.76929,35.70893 44.93784,45.15008 45.9946,47.36211 1.87189,3.91826 1.85687,9.50524 -0.0357,13.29092 -1.81724,3.63496 -89.44059,91.244315 -92.84383,92.828995 -2.82745,1.31656 -9.21325,1.63074 -12.01915,0.59135 z"
     id="path4548"
     inkscape:connector-curvature="0" />
  <path
     style="fill:#2fa75e;fill-opacity:0;stroke-width:0.55255258"
     d="m 232.91452,-76.411695 c -7.86431,-4.09133 -10.8213,-13.16909 -6.86347,-21.07043 0.48713,-0.97251 14.46856,-15.379755 31.06985,-32.016105 l 30.18415,-30.24791 -137.57444,-0.14248 -137.574453,-0.14248 -2.5728681,-1.18928 c -8.202481,-3.79151 -11.6031447,-13.87164 -7.3290547,-21.72455 1.7085934,-3.13925 3.5833627,-4.94446 7.0748035,-6.81228 l 2.2745663,-1.21684 137.845956,-0.14247 137.84596,-0.14247 -30.20951,-30.24792 c -33.37243,-33.41486 -32.6765,-32.57647 -32.6765,-39.36504 0,-6.23387 3.23056,-11.40524 8.83902,-14.1492 4.04854,-1.98076 9.32816,-2.06873 13.26202,-0.22097 2.13229,1.00156 11.88493,10.44036 46.99577,45.48351 31.98803,31.92635 44.73539,45.0003 45.85286,47.02764 1.2763,2.31548 1.54934,3.48636 1.55676,6.67584 0.0172,7.3894 2.7578,4.24422 -46.98695,53.92315 -25.39876,25.365155 -45.93212,45.439615 -47.09185,46.039395 -1.29002,0.66717 -3.60074,1.15272 -6.2005,1.3029 -3.86115,0.22304 -4.38846,0.11228 -7.72212,-1.62201 z"
     id="path4550"
     inkscape:connector-curvature="0" />
  <path
     style="fill:#124125;fill-opacity:0.94509804;stroke-width:0.55255258"
     d="m 234.69558,-75.421945 c -4.50933,-1.67042 -8.52673,-5.99556 -9.803,-10.55397 -0.92925,-3.31895 -0.44728,-8.29478 1.10234,-11.38046 0.84616,-1.68491 10.53424,-11.776575 31.12168,-32.418135 l 29.89306,-29.97163 -137.56488,-0.14249 -137.5649,-0.14247 -2.8125031,-1.48404 c -9.90215903,-5.22493 -11.659024,-18.18807 -3.4636081,-25.55645 5.0913932,-4.5776 -8.7411161,-4.17874 144.9157212,-4.17874 h 137.06136 l -30.72234,-30.8048 c -27.78199,-27.85655 -30.80847,-31.06542 -31.62225,-33.52786 -3.43276,-10.38721 4.12052,-21.0053 14.88567,-20.92568 6.68851,0.0495 4.56084,-1.821 53.47774,47.01335 35.76929,35.70893 44.93784,45.15008 45.9946,47.36211 1.87189,3.91826 1.85687,9.50524 -0.0357,13.29092 -1.81724,3.63496 -89.44059,91.244315 -92.84383,92.828995 -2.82745,1.31656 -9.21325,1.63074 -12.01915,0.59135 z"
     id="path4554"
     inkscape:connector-curvature="0" />
  <path
     style="fill:#3de928;fill-opacity:1;stroke-width:0.06928766"
     d="m 36.361065,41.604176 c -0.358975,-0.197915 -0.72436,-0.601965 -0.886929,-0.980786 -0.185269,-0.431716 -0.18489,-1.130495 8.59e-4,-1.565765 0.162254,-0.380234 1.177185,-1.499629 4.861137,-5.361481 l 2.650971,-2.778986 -3.898496,-5.13e-4 c -2.144174,-1.28e-4 -9.756892,-0.01966 -16.917154,-0.04315 L 9.1528215,30.830772 8.8776993,30.666544 C 8.4662471,30.420938 8.0695433,29.932474 7.9330616,29.503406 7.7918473,29.05946 7.8210266,28.448905 8.0011447,28.078817 8.20088,27.668423 8.5873769,27.223429 8.8397018,27.113342 9.2696838,26.925744 12.437219,26.887936 28.002417,26.884613 l 15.052488,-0.0032 -2.544981,-2.672784 c -4.047344,-4.250593 -4.940312,-5.224135 -5.061498,-5.518207 -0.143306,-0.347747 -0.14179,-1.103828 0.0029,-1.462054 0.292454,-0.723913 0.905647,-1.176863 1.670576,-1.234012 0.567098,-0.04237 0.762593,0.04745 1.464544,0.672854 0.676265,0.602523 7.037086,7.193253 9.119749,9.449376 0.887814,0.961759 1.667934,1.853866 1.733599,1.982463 0.161444,0.316158 0.166054,1.27546 0.0076,1.585071 -0.30967,0.605152 -11.023976,11.765261 -11.492055,11.970218 -0.341908,0.149711 -1.285606,0.120008 -1.594294,-0.05018 z"
     id="path5161"
     inkscape:connector-curvature="0" />
</svg>
