<?xml version="1.0" encoding="UTF-8" standalone="no"?>
<svg
   xmlns:dc="http://purl.org/dc/elements/1.1/"
   xmlns:cc="http://creativecommons.org/ns#"
   xmlns:rdf="http://www.w3.org/1999/02/22-rdf-syntax-ns#"
   xmlns:svg="http://www.w3.org/2000/svg"
   xmlns="http://www.w3.org/2000/svg"
   xmlns:sodipodi="http://sodipodi.sourceforge.net/DTD/sodipodi-0.dtd"
   xmlns:inkscape="http://www.inkscape.org/namespaces/inkscape"
   height="80pt"
   viewBox="0 -91 80.156243 80"
   width="80pt"
   version="1.1"
   id="svg299"
   sodipodi:docname="delivery.svg"
   inkscape:version="0.92.5 (2060ec1f9f, 2020-04-08)">
  <metadata
     id="metadata305">
    <rdf:RDF>
      <cc:Work
         rdf:about="">
        <dc:format>image/svg+xml</dc:format>
        <dc:type
           rdf:resource="http://purl.org/dc/dcmitype/StillImage" />
        <dc:title></dc:title>
      </cc:Work>
    </rdf:RDF>
  </metadata>
  <defs
     id="defs303" />
  <sodipodi:namedview
     pagecolor="#ffffff"
     bordercolor="#666666"
     borderopacity="1"
     objecttolerance="10"
     gridtolerance="10"
     guidetolerance="10"
     inkscape:pageopacity="0"
     inkscape:pageshadow="2"
     inkscape:window-width="1920"
     inkscape:window-height="1057"
     id="namedview301"
     showgrid="false"
     inkscape:zoom="1"
     inkscape:cx="340.66667"
     inkscape:cy="383.97175"
     inkscape:window-x="-8"
     inkscape:window-y="-8"
     inkscape:window-maximized="1"
     inkscape:current-layer="svg299" />
  <path
     d="m 68.954462,-69.025698 h -3.174326 c 9.97e-4,-0.04928 0.0045,-0.09857 0.0045,-0.148685 v -12.654754 c 3e-5,-1.767507 -0.902288,-3.205035 -2.010608,-3.205035 H 25.482562 c -0.52972,0 -0.958682,0.683776 -0.958682,1.528175 0,0.843597 0.428962,1.528174 0.958682,1.528174 h 7.131259 l 1.711861,4.551137 c 0.347162,0.923898 1.020034,1.497959 1.755257,1.497959 h 9.848689 c 0.735222,0 1.408095,-0.574061 1.755755,-1.497959 l 1.711363,-4.551137 h 14.376742 c 0.05187,0 0.09378,0.06675 0.09378,0.148686 v 12.653964 c 0,0.08266 -0.0419,0.149475 -0.09378,0.149475 H 18.237079 c -0.05137,0 -0.09378,-0.06675 -0.09378,-0.148685 v -12.654754 c 0,-0.08188 0.0424,-0.148686 0.09378,-0.148686 h 3.006232 c 0.529221,0 0.958682,-0.684577 0.958682,-1.528174 0,-0.844399 -0.429461,-1.528175 -0.958682,-1.528175 h -3.006232 c -1.108819,0 -2.010639,1.437528 -2.010639,3.205035 v 12.654754 c 0,1.767506 0.90182,3.205034 2.010639,3.205034 h 3.174326 c -0.0015,0.04928 -0.0045,0.09857 -0.0045,0.148686 v 12.654765 c 0,0.10413 0.0035,0.206725 0.0095,0.308496 -0.906808,0.310088 -1.588659,1.59656 -1.588659,3.133479 v 5.717538 c -0.170588,-0.113698 -0.357137,-0.17889 -0.553163,-0.17889 h -2.037574 c -0.134674,-1.071004 -0.728738,-1.879613 -1.43952,-1.879613 H 7.0551135 c -0.8095437,0 -1.4679511,1.050322 -1.4679511,2.340766 v 2.675496 c 0,0.844399 0.4294614,1.528175 0.9586813,1.528175 0.5292211,0 0.9586824,-0.683776 0.9586824,-1.528175 v -1.959913 h 7.8440359 v 20.046782 H 7.5045261 v -11.090812 c 0,-0.844388 -0.4294613,-1.528175 -0.9586824,-1.528175 -0.5292199,0 -0.9586813,0.683787 -0.9586813,1.528175 v 11.807196 c 0,1.290444 0.6584074,2.339965 1.4679511,2.339965 h 8.7423635 c 0.710782,0 1.304846,-0.808609 1.43952,-1.879613 h 2.037574 c 0.436445,0 0.827998,-0.311678 1.093357,-0.800655 1.855513,1.557589 5.381489,3.486497 11.889754,4.367463 0.319228,0.04294 0.639455,0.06441 0.959181,0.06441 1.371185,0 2.739877,-0.393569 4.006314,-1.159247 5.249808,-3.171648 9.704538,-9.702569 11.892748,-13.313109 0.229943,-0.379263 0.419984,-0.795883 0.572616,-1.237957 h 17.68624 c 1.108819,0 2.011138,-1.438329 2.011138,-3.205836 v -12.653964 c 0,-0.10413 -0.004,-0.207526 -0.01001,-0.309297 0.906807,-0.310087 1.588659,-1.596549 1.588659,-3.132678 v -12.653964 c 4.98e-4,-1.767507 -0.901321,-3.205835 -2.010141,-3.205835 z M 46.052331,-79.029609 c -0.01695,0.01513 -0.05936,0.0445 -0.122703,0.0445 h -9.848689 c -0.06335,0 -0.105749,-0.02948 -0.122704,-0.0445 l -1.108818,-2.949015 H 47.161649 Z M 18.80321,-24.982101 v 0.140731 h -1.537282 v -16.287556 h 1.537282 z m 33.538914,-40.987248 -1.109317,2.948225 c -0.01695,0.01591 -0.05936,0.0445 -0.122704,0.0445 h -9.848689 c -0.06285,0 -0.105749,-0.02859 -0.122703,-0.0445 l -1.108819,-2.948225 z m -4.604866,31.220277 c -2.076978,3.426867 -6.292787,9.617495 -11.193438,12.578436 -1.295368,0.783167 -2.721421,1.096436 -4.12403,0.907199 -5.372511,-0.726718 -9.584827,-2.360635 -11.699215,-4.516939 v -14.384102 h 0.67387 c 1.581177,0 3.151881,-0.360183 4.668215,-1.070992 l 7.931325,-3.717875 c 0.561142,-0.262383 1.16618,0.145504 1.438522,0.970812 0.310748,0.941397 0.08778,2.124497 -0.497797,2.636547 l -1.805136,1.57906 c -0.495303,0.43333 -0.779615,1.292825 -0.72375,2.1889 0.05586,0.896875 0.440435,1.650616 0.979632,1.920164 l 2.024106,1.011362 c 1.223542,0.61143 2.553826,0.53271 3.745445,-0.223423 l 6.735715,-4.271266 c 0.681352,-0.431739 1.45598,-0.120851 1.92734,0.775223 0.55865,1.06384 0.524233,2.618258 -0.0808,3.616894 z m 19.731795,-2.320887 c 0,0.08266 -0.0424,0.149476 -0.09378,0.149476 H 50.128974 c -0.03841,-1.211724 -0.317733,-2.411522 -0.841466,-3.407777 v -8.23e-4 c -1.003574,-1.909028 -2.653585,-2.572923 -4.105574,-1.652207 l -6.735715,4.272055 c -0.783606,0.496932 -1.658491,0.548619 -2.463046,0.147095 l -0.883863,-0.442074 0.757668,-0.662316 c 1.495883,-1.308734 2.066504,-4.331685 1.272424,-6.738445 -0.695818,-2.109389 -2.242079,-3.153359 -3.676612,-2.479908 l -7.931324,3.717074 c -1.22853,0.576453 -2.497462,0.888921 -3.776869,0.937426 v -6.493562 c 0,-0.08188 0.0419,-0.148686 0.09378,-0.148686 h 14.376741 l 1.711363,4.550348 c 0.347659,0.924698 1.020532,1.498748 1.755755,1.498748 h 9.84869 c 0.735221,0 1.407597,-0.57405 1.755256,-1.498748 l 1.711861,-4.550348 h 14.376742 c 0.05187,0 0.09378,0.06675 0.09378,0.148686 v 12.653964 z M 38.45071,-49.872609 h 12.312233 l -1.109319,2.948226 c -0.01695,0.01591 -0.05936,0.0445 -0.122702,0.0445 h -9.84869 c -0.06285,0 -0.105749,-0.02859 -0.122704,-0.0445 z m 30.597027,-3.293289 c 0,0.08188 -0.0419,0.148686 -0.09327,0.148686 H 23.417554 c -0.05187,0 -0.09378,-0.06675 -0.09378,-0.148686 v -12.653964 c 0,-0.08266 0.0424,-0.149487 0.09378,-0.149487 h 14.376742 l 1.711363,4.551138 c 0.34766,0.923909 1.020533,1.497959 1.755755,1.497959 h 9.848689 c 0.735223,0 1.408096,-0.57405 1.755755,-1.497959 l 1.711363,-4.551138 h 14.376742 c 0.05187,0 0.09377,0.06675 0.09377,0.148686 z m 0,0"
     id="path297"
     inkscape:connector-curvature="0"
     style="stroke-width:0.16121693" />
  <path
     style="fill:#3de928;fill-opacity:1;stroke-width:0.3497574"
     d="m 29.411235,-18.93444 c -2.92388,-0.638375 -5.409066,-1.587515 -7.639129,-2.917531 -1.124096,-0.670426 -1.611961,-0.770584 -2.027333,-0.416231 -0.300854,0.256665 -0.991514,0.46666 -1.534803,0.46666 -0.61843,0 -1.19497,0.330235 -1.541843,0.88317 -0.510101,0.813115 -0.923415,0.883169 -5.210511,0.883169 -3.5806233,0 -4.7807035,-0.144592 -5.1942025,-0.625837 -0.4813341,-0.560199 -0.5467233,-1.289732 -0.6233866,-6.954994 -0.090828,-6.712135 0.1342497,-8.240899 1.124152,-7.635377 0.4045403,0.247454 0.4805282,1.125361 0.5467396,6.316642 l 0.076897,6.029249 4.0861055,0.122208 4.086105,0.122208 V -32.82942 -42.997726 h -4.15536 -4.1553621 v 1.545563 c 0,1.351031 -0.0865,1.545552 -0.6872815,1.545552 -0.8463448,0 -1.1705611,-1.577336 -0.8066662,-3.924477 l 0.2473399,-1.595359 5.3197889,-0.11986 c 5.094979,-0.114799 5.332456,-0.0821 5.619486,0.772775 0.238974,0.711778 0.578357,0.892637 1.675068,0.892637 h 1.375374 v -3.532699 c 0,-2.943909 0.09234,-3.679894 0.554049,-4.415869 0.304726,-0.485739 0.678708,-0.883169 0.831072,-0.883169 0.172279,0 0.277024,-2.486248 0.277024,-6.575542 v -6.575543 l -2.107746,-0.169667 c -3.127067,-0.251714 -3.155713,-0.339391 -3.155713,-9.658647 v -7.426004 l 0.744028,-0.932921 c 0.626493,-0.785536 1.053172,-0.912672 2.700984,-0.804827 1.881312,0.123132 1.956959,0.170758 1.956959,1.232061 0,1.056074 -0.08143,1.109641 -1.877059,1.234797 l -1.87706,0.13083 0.07641,6.71377 0.07641,6.71376 H 41.046253 63.90074 l 0.07647,-6.734196 0.07647,-6.734207 h -7.32352 -7.323522 l -1.113884,2.811421 c -0.612635,1.546286 -1.31964,2.937278 -1.571122,3.091114 -0.25148,0.153826 -2.850189,0.279683 -5.774911,0.279683 -6.093729,0 -6.019295,0.03794 -7.381523,-3.757391 l -0.870345,-2.424827 h -3.866701 c -3.195982,0 -3.894594,-0.115867 -4.02751,-0.668001 -0.08845,-0.367403 -0.007,-0.963547 0.181126,-1.324765 0.296719,-0.5699 2.921789,-0.656753 19.850807,-0.656753 h 19.508871 l 0.679967,1.083897 c 0.665438,1.060736 0.679969,1.235298 0.679969,8.169355 v 7.085468 h 2.034744 c 2.997781,0 3.067458,0.183584 3.178838,8.375367 0.09361,6.885006 -0.252148,9.729702 -1.182597,9.729702 -0.37016,0 -0.429672,0.970378 -0.429672,7.005835 0,6.41897 -0.0481,7.103313 -0.574154,8.169355 l -0.574156,1.16353 h -9.162657 -9.162657 l -2.391012,3.674154 c -4.893345,7.519398 -10.693958,12.379978 -14.532587,12.177469 -0.474384,-0.02503 -2.046795,-0.304068 -3.494246,-0.620085 z m 6.176752,-2.641498 c 3.096504,-1.285649 6.967093,-5.131462 10.652461,-10.58428 1.654335,-2.447723 2.008424,-3.211231 2.008424,-4.330673 0,-1.645143 -0.690904,-2.974136 -1.54616,-2.974136 -0.34607,0 -2.370772,1.092932 -4.499336,2.428733 -4.260905,2.67396 -5.299873,2.897784 -7.745956,1.668694 -2.500933,-1.256658 -2.603711,-3.137094 -0.274973,-5.030859 1.405133,-1.142682 1.877271,-2.70432 1.185825,-3.92223 -0.276335,-0.486729 -0.701262,-0.881489 -0.944284,-0.877228 -0.24302,0.0044 -2.56109,1.003442 -5.151266,2.220416 -2.653865,1.246902 -5.58888,2.332268 -6.724346,2.48666 l -2.014935,0.273987 0.07577,7.330908 0.07577,7.330907 1.343842,1.022888 c 1.977536,1.505235 7.749557,3.373067 10.994784,3.55792 0.539352,0.03071 1.693323,-0.240044 2.564386,-0.601707 z M 18.884319,-32.841224 v -8.390152 h -0.831073 -0.831072 v 8.390152 8.390152 h 0.831072 0.831073 z M 67.640558,-43.43931 v -6.623803 h -7.340196 -7.340199 l -1.027396,2.619949 c -0.565067,1.440965 -1.319323,2.831968 -1.676117,3.091103 -0.805939,0.585342 -10.288088,0.635627 -11.238553,0.05963 -0.385532,-0.233658 -1.120524,-1.569904 -1.700236,-3.091103 L 36.29672,-50.06308 H 28.975641 21.65456 v 3.589582 3.589592 l 1.394912,-0.294968 c 0.767202,-0.162225 3.353916,-1.213727 5.748249,-2.336662 2.394336,-1.122935 4.742019,-2.1274 5.217075,-2.232153 1.22834,-0.27086 2.562404,0.969577 3.052131,2.837932 0.568792,2.169987 0.26091,3.832974 -1.037665,5.604797 -1.053317,1.437183 -1.071413,1.506114 -0.463522,1.765704 1.4424,0.615958 2.763841,0.171926 6.388084,-2.146535 4.660703,-2.981489 5.410582,-3.059319 6.881688,-0.714325 0.591527,0.942921 1.075504,2.135199 1.075504,2.649519 0,0.932964 0.02053,0.935123 8.864771,0.935123 h 8.864771 z m -17.449481,-4.526262 c 0.301917,-0.789341 0.549409,-1.5842 0.549976,-1.76635 5.75e-4,-0.182161 -2.811809,-0.331191 -6.249731,-0.331191 h -6.250767 l 0.622785,1.76635 0.622784,1.766349 h 5.078007 5.078006 z m 19.049775,-11.481267 0.07667,-6.513409 H 61.850794 54.38407 l -0.87267,2.431335 c -0.479967,1.337236 -1.104224,2.628871 -1.387239,2.870317 -0.55103,0.470087 -11.007583,0.623734 -11.745135,0.172582 -0.239534,-0.146528 -0.882059,-1.438162 -1.427835,-2.870317 l -0.992325,-2.603917 h -7.321079 -7.321081 v 6.626361 6.62635 l 22.923744,-0.112941 22.923744,-0.112952 z m -17.311161,-5.078251 0.525542,-1.435158 h -6.268287 -6.26829 l 0.323528,0.993573 c 0.702463,2.157305 0.599483,2.123151 6.021888,1.99666 l 5.140077,-0.119917 z m -5.273707,-15.604515 c 0.266635,-0.746765 0.484792,-1.540367 0.484792,-1.763557 0,-0.234693 -2.63576,-0.405806 -6.250766,-0.405806 h -6.250769 l 0.622786,1.766349 0.622783,1.76635 5.14319,-0.0022 5.143191,-0.0033 0.484793,-1.35775 z"
     id="path307"
     inkscape:connector-curvature="0" />
</svg>
