<svg xmlns="http://www.w3.org/2000/svg" height="80pt" viewBox="0 -91 80.156 80" width="80pt"><path d="M68.954-69.026H65.78c.001-.049.005-.098.005-.148V-81.83c0-1.768-.903-3.205-2.011-3.205H25.483c-.53 0-.96.684-.96 1.528s.43 1.528.96 1.528h7.13l1.713 4.551c.347.924 1.02 1.498 1.755 1.498h9.849c.735 0 1.408-.574 1.755-1.498l1.712-4.55h14.376c.052 0 .094.066.094.148v12.654c0 .082-.042.15-.094.15H18.237c-.051 0-.094-.067-.094-.15V-81.83c0-.082.043-.149.094-.149h3.006c.53 0 .959-.684.959-1.528s-.43-1.528-.959-1.528h-3.006c-1.109 0-2.01 1.437-2.01 3.205v12.655c0 1.767.901 3.205 2.01 3.205h3.174c-.001.049-.004.098-.004.148v12.655c0 .104.003.207.01.309-.907.31-1.59 1.596-1.59 3.133v5.718a.993.993 0 0 0-.552-.18h-2.038c-.135-1.07-.729-1.879-1.44-1.879H7.055c-.81 0-1.468 1.05-1.468 2.34v2.676c0 .845.43 1.529.959 1.529.53 0 .959-.684.959-1.529v-1.96h7.844v20.047H7.505v-11.09c0-.845-.43-1.529-.96-1.529-.528 0-.958.684-.958 1.528v11.808c0 1.29.659 2.34 1.468 2.34h8.742c.711 0 1.305-.809 1.44-1.88h2.038c.436 0 .828-.312 1.093-.8 1.855 1.557 5.381 3.486 11.89 4.367.319.043.64.064.959.064 1.371 0 2.74-.393 4.006-1.16 5.25-3.17 9.705-9.702 11.893-13.312.23-.38.42-.796.573-1.238h17.686c1.109 0 2.01-1.438 2.01-3.206v-12.654c0-.104-.003-.207-.01-.31.908-.31 1.59-1.596 1.59-3.132V-65.82c0-1.767-.902-3.206-2.01-3.206zM46.052-79.03a.186.186 0 0 1-.122.045h-9.85a.187.187 0 0 1-.122-.045l-1.109-2.949h12.313ZM18.803-24.982v.14h-1.537v-16.287h1.537zm33.54-40.987-1.11 2.948a.182.182 0 0 1-.123.044h-9.849a.183.183 0 0 1-.122-.044l-1.11-2.948zm-4.606 31.22c-2.077 3.427-6.293 9.617-11.193 12.578-1.296.784-2.722 1.097-4.124.908-5.373-.727-9.585-2.361-11.7-4.517v-14.384h.674c1.582 0 3.152-.36 4.669-1.071l7.931-3.718c.561-.263 1.166.145 1.439.97.31.942.087 2.125-.498 2.637l-1.805 1.58c-.496.432-.78 1.292-.724 2.188.056.897.44 1.65.98 1.92l2.024 1.011c1.223.612 2.553.533 3.745-.223l6.736-4.271c.681-.432 1.456-.121 1.927.775.559 1.064.524 2.618-.08 3.617zM67.47-37.07c0 .083-.042.15-.094.15H50.13c-.038-1.212-.318-2.412-.841-3.408v-.001c-1.004-1.91-2.654-2.573-4.106-1.652l-6.736 4.272c-.783.497-1.658.548-2.463.147l-.884-.442.758-.663c1.496-1.308 2.066-4.331 1.272-6.738-.695-2.11-2.242-3.153-3.676-2.48l-7.932 3.717a9.717 9.717 0 0 1-3.776.938v-6.494c0-.082.041-.149.093-.149h14.377l1.711 4.55c.348.925 1.021 1.5 1.756 1.5h9.849c.735 0 1.408-.575 1.755-1.5l1.712-4.55h14.377c.052 0 .094.067.094.15v12.653zM38.451-49.873h12.312l-1.11 2.949a.182.182 0 0 1-.122.044h-9.849a.183.183 0 0 1-.122-.044zm30.597-3.293c0 .082-.042.149-.094.149H23.418c-.052 0-.094-.067-.094-.149V-65.82c0-.083.042-.15.094-.15h14.376l1.712 4.552c.347.924 1.02 1.498 1.755 1.498h9.85c.734 0 1.407-.574 1.755-1.498l1.711-4.551h14.377c.052 0 .094.066.094.148zm0 0" style="stroke-width:.16121693"/><path style="fill:#3de928;fill-opacity:1;stroke-width:.3497574" d="M29.411-18.934c-2.924-.639-5.409-1.588-7.639-2.918-1.124-.67-1.612-.77-2.027-.416-.301.256-.992.466-1.535.466-.618 0-1.195.33-1.542.884-.51.813-.923.883-5.21.883-3.581 0-4.781-.145-5.195-.626-.48-.56-.546-1.29-.623-6.955-.09-6.712.134-8.24 1.124-7.635.405.247.48 1.125.547 6.316l.077 6.03 4.086.122 4.086.122v-20.337H7.249v1.546c0 1.35-.086 1.545-.687 1.545-.846 0-1.17-1.577-.807-3.924l.248-1.595 5.32-.12c5.094-.115 5.332-.082 5.619.772.239.712.578.893 1.675.893h1.375v-3.533c0-2.944.093-3.68.554-4.415.305-.486.68-.884.832-.884.172 0 .277-2.486.277-6.575v-6.576l-2.108-.17c-3.127-.251-3.156-.339-3.156-9.658v-7.426l.744-.933c.627-.785 1.053-.913 2.701-.805 1.881.123 1.957.171 1.957 1.232 0 1.056-.081 1.11-1.877 1.235l-1.877.13.076 6.715.077 6.713H63.9l.076-6.734.077-6.734H49.407l-1.114 2.811c-.613 1.547-1.32 2.938-1.571 3.092-.252.153-2.85.28-5.775.28-6.094 0-6.02.037-7.382-3.758l-.87-2.425h-3.867c-3.196 0-3.894-.116-4.027-.668-.089-.367-.007-.964.18-1.325.297-.57 2.923-.656 19.852-.656H64.34l.68 1.083c.666 1.061.68 1.236.68 8.17v7.085h2.035c2.998 0 3.068.184 3.179 8.376.094 6.885-.252 9.73-1.183 9.73-.37 0-.43.97-.43 7.005 0 6.42-.047 7.103-.573 8.17l-.575 1.163H49.83l-2.39 3.674c-4.894 7.52-10.695 12.38-14.534 12.178-.474-.025-2.046-.304-3.494-.62zm6.177-2.642c3.096-1.286 6.967-5.131 10.652-10.584 1.655-2.448 2.009-3.211 2.009-4.33 0-1.646-.691-2.975-1.546-2.975-.346 0-2.371 1.093-4.5 2.429-4.26 2.674-5.3 2.897-7.746 1.668-2.5-1.256-2.603-3.137-.275-5.03 1.406-1.143 1.878-2.705 1.186-3.923-.276-.486-.701-.881-.944-.877-.243.004-2.561 1.004-5.151 2.22-2.654 1.247-5.59 2.333-6.725 2.487l-2.015.274.076 7.331.076 7.331 1.344 1.023c1.977 1.505 7.75 3.373 10.995 3.558.539.03 1.693-.24 2.564-.602zM18.884-32.84v-8.39h-1.662v16.78h1.662zm48.757-10.6v-6.624H52.96l-1.028 2.62c-.565 1.44-1.32 2.832-1.676 3.09-.806.586-10.288.637-11.239.06-.385-.233-1.12-1.57-1.7-3.09l-1.021-2.68H21.655v7.18l1.394-.296c.768-.162 3.354-1.214 5.749-2.337 2.394-1.122 4.742-2.127 5.217-2.232 1.228-.27 2.562.97 3.052 2.838.569 2.17.26 3.833-1.038 5.605-1.053 1.437-1.071 1.506-.463 1.766 1.442.616 2.764.172 6.388-2.147 4.66-2.981 5.41-3.06 6.882-.714.591.943 1.075 2.135 1.075 2.65 0 .932.02.935 8.865.935h8.865zm-17.45-4.527c.302-.789.55-1.584.55-1.766 0-.182-2.812-.331-6.25-.331h-6.25l.622 1.766.623 1.767h10.156zm19.05-11.48.077-6.514H54.384l-.873 2.431c-.48 1.337-1.104 2.629-1.387 2.87-.55.47-11.007.624-11.745.173-.24-.147-.882-1.438-1.428-2.87l-.992-2.604H23.317v13.252l22.923-.112 22.924-.113zm-17.311-5.08.525-1.434H39.92l.323.993c.703 2.158.6 2.123 6.022 1.997l5.14-.12zM46.656-80.13c.267-.746.485-1.54.485-1.763 0-.235-2.636-.406-6.251-.406h-6.25l.622 1.766.623 1.767 5.143-.002 5.143-.004.485-1.358z"/></svg>