<?xml version="1.0" encoding="UTF-8"?>
<svg xmlns="http://www.w3.org/2000/svg" xmlns:xlink="http://www.w3.org/1999/xlink" width="107px" height="107px" viewBox="0 0 107 107" version="1.1">
<g id="surface1">
<path style=" stroke:none;fill-rule:nonzero;fill:rgb(47.058824%,81.176471%,81.176471%);fill-opacity:1;" d="M 98.644531 7.933594 L 8.359375 7.933594 C 3.75 7.933594 0 11.6875 0 16.296875 L 0 69.804688 C 0 74.414062 3.75 78.167969 8.359375 78.167969 L 50.769531 78.167969 L 50.769531 74.820312 L 8.359375 74.820312 C 5.589844 74.820312 3.34375 72.5625 3.34375 69.804688 L 3.34375 16.296875 C 3.34375 13.527344 5.589844 11.28125 8.359375 11.28125 L 98.644531 11.28125 C 101.410156 11.28125 103.660156 13.527344 103.660156 16.296875 L 103.660156 50.214844 C 104.242188 50.214844 106.472656 50.078125 107 50.214844 L 107 16.296875 C 107 11.6875 103.25 7.933594 98.644531 7.933594 Z M 98.644531 7.933594 "/>
<path style=" stroke:none;fill-rule:nonzero;fill:rgb(47.058824%,81.176471%,81.176471%);fill-opacity:1;" d="M 11.703125 26.734375 L 20.0625 26.734375 L 20.0625 31.269531 L 11.703125 31.269531 Z M 11.703125 26.734375 "/>
<path style=" stroke:none;fill-rule:nonzero;fill:rgb(47.058824%,81.176471%,81.176471%);fill-opacity:1;" d="M 11.703125 34.246094 L 11.703125 35.734375 C 11.703125 37.578125 13.195312 39.074219 15.046875 39.074219 L 23.03125 39.074219 L 23.03125 34.246094 Z M 11.703125 34.246094 "/>
<path style=" stroke:none;fill-rule:nonzero;fill:rgb(47.058824%,81.176471%,81.176471%);fill-opacity:1;" d="M 38.453125 23.769531 L 38.453125 22.355469 C 38.453125 20.507812 36.960938 19.011719 35.109375 19.011719 L 27.113281 19.011719 L 27.113281 23.769531 Z M 38.453125 23.769531 "/>
<path style=" stroke:none;fill-rule:nonzero;fill:rgb(47.058824%,81.176471%,81.176471%);fill-opacity:1;" d="M 23.03125 19.011719 L 15.046875 19.011719 C 13.195312 19.011719 11.703125 20.507812 11.703125 22.355469 L 11.703125 23.769531 L 23.03125 23.769531 Z M 23.03125 19.011719 "/>
<path style=" stroke:none;fill-rule:nonzero;fill:rgb(47.058824%,81.176471%,81.176471%);fill-opacity:1;" d="M 30.09375 26.734375 L 38.453125 26.734375 L 38.453125 31.269531 L 30.09375 31.269531 Z M 30.09375 26.734375 "/>
<path style=" stroke:none;fill-rule:nonzero;fill:rgb(47.058824%,81.176471%,81.176471%);fill-opacity:1;" d="M 27.113281 39.078125 L 35.109375 39.078125 C 36.960938 39.078125 38.453125 37.578125 38.453125 35.734375 L 38.453125 34.246094 L 27.113281 34.246094 Z M 27.113281 39.078125 "/>
<path style=" stroke:none;fill-rule:nonzero;fill:rgb(47.058824%,81.176471%,81.176471%);fill-opacity:1;" d="M 48.488281 64.785156 L 13.53125 64.785156 C 12.597656 64.785156 11.859375 64.035156 11.859375 63.109375 C 11.859375 62.179688 12.597656 61.4375 13.53125 61.4375 L 48.488281 61.4375 C 49.414062 61.4375 50.15625 62.179688 50.15625 63.109375 C 50.15625 64.035156 49.414062 64.785156 48.488281 64.785156 Z M 48.488281 64.785156 "/>
<path style=" stroke:none;fill-rule:nonzero;fill:rgb(47.058824%,81.176471%,81.176471%);fill-opacity:1;" d="M 56.84375 48.605469 L 40.125 48.605469 C 39.207031 48.605469 38.453125 49.359375 38.453125 50.28125 C 38.453125 51.207031 39.207031 51.949219 40.125 51.949219 L 56.84375 51.949219 C 57.765625 51.949219 58.519531 51.207031 58.519531 50.28125 C 58.519531 49.359375 57.765625 48.605469 56.84375 48.605469 Z M 56.84375 48.605469 "/>
<path style=" stroke:none;fill-rule:nonzero;fill:rgb(47.058824%,81.176471%,81.176471%);fill-opacity:1;" d="M 30.734375 48.605469 L 13.761719 48.605469 C 12.84375 48.605469 12.089844 49.359375 12.089844 50.28125 C 12.089844 51.207031 12.839844 51.949219 13.761719 51.949219 L 30.734375 51.949219 C 31.65625 51.949219 32.410156 51.207031 32.410156 50.28125 C 32.410156 49.359375 31.65625 48.605469 30.734375 48.605469 Z M 30.734375 48.605469 "/>
<path style=" stroke:none;fill-rule:nonzero;fill:rgb(47.058824%,81.176471%,81.176471%);fill-opacity:1;" d="M 105.332031 55.777344 L 99.269531 55.777344 L 99.269531 46.28125 C 99.269531 36.433594 91.246094 28.417969 81.394531 28.417969 C 71.535156 28.417969 63.535156 36.433594 63.535156 46.28125 L 63.535156 55.777344 L 57.457031 55.777344 C 56.539062 55.777344 55.785156 56.515625 55.785156 57.441406 L 55.785156 98.484375 C 55.785156 103.191406 59.59375 107 64.296875 107 L 98.5 107 C 103.183594 107 107 103.183594 107 98.484375 L 107 57.441406 C 107 56.515625 106.261719 55.777344 105.332031 55.777344 Z M 66.867188 46.28125 C 66.867188 38.273438 73.386719 31.757812 81.394531 31.757812 C 89.40625 31.757812 95.925781 38.273438 95.925781 46.28125 L 95.925781 55.777344 L 66.867188 55.777344 Z M 103.660156 98.484375 C 103.660156 101.34375 101.34375 103.664062 98.5 103.664062 L 64.296875 103.664062 C 61.441406 103.664062 59.128906 101.34375 59.128906 98.484375 L 59.128906 59.117188 L 103.660156 59.117188 Z M 103.660156 98.484375 "/>
<path style=" stroke:none;fill-rule:nonzero;fill:rgb(47.058824%,81.176471%,81.176471%);fill-opacity:1;" d="M 81.394531 68.324219 C 76.695312 68.324219 72.882812 72.136719 72.882812 76.828125 C 72.882812 79.257812 73.941406 81.566406 75.730469 83.167969 L 75.730469 88.8125 C 75.730469 91.921875 78.269531 94.453125 81.394531 94.453125 C 84.503906 94.453125 87.050781 91.921875 87.050781 88.8125 L 87.050781 83.167969 C 88.851562 81.566406 89.90625 79.242188 89.90625 76.828125 C 89.90625 72.136719 86.082031 68.324219 81.394531 68.324219 Z M 84.390625 81.019531 L 83.703125 81.519531 L 83.703125 88.8125 C 83.703125 90.078125 82.667969 91.105469 81.394531 91.105469 C 80.113281 91.105469 79.070312 90.078125 79.070312 88.8125 L 79.070312 81.519531 L 78.382812 81.019531 C 77.035156 80.046875 76.230469 78.480469 76.230469 76.828125 C 76.230469 73.992188 78.542969 71.671875 81.394531 71.671875 C 84.238281 71.671875 86.5625 73.992188 86.5625 76.828125 C 86.566406 78.472656 85.742188 80.035156 84.390625 81.019531 Z M 84.390625 81.019531 "/>
<path style=" stroke:none;fill-rule:nonzero;fill:rgb(23.921569%,91.372549%,15.686275%);fill-opacity:1;" d="M 7.15625 78.03125 C 5.40625 77.777344 3.886719 76.988281 2.519531 75.628906 C 1.683594 74.796875 1.386719 74.402344 0.984375 73.574219 C -0.03125 71.492188 0.0664062 74.488281 0.0273438 43.691406 C 0.00390625 25.417969 0.03125 15.964844 0.113281 15.335938 C 0.535156 12.148438 2.523438 9.644531 5.570312 8.46875 L 6.566406 8.085938 L 100.3125 8.085938 L 101.289062 8.421875 C 104.292969 9.453125 106.46875 12.121094 106.878906 15.28125 C 106.945312 15.796875 106.992188 23.191406 106.996094 33.148438 L 107 50.136719 L 105.371094 50.148438 L 103.746094 50.160156 L 103.746094 33.21875 C 103.746094 22.164062 103.703125 16.011719 103.621094 15.511719 C 103.355469 13.886719 102.257812 12.433594 100.761719 11.722656 L 99.949219 11.339844 L 7.050781 11.339844 L 6.238281 11.722656 C 4.734375 12.4375 3.644531 13.894531 3.371094 15.570312 C 3.207031 16.582031 3.214844 69.527344 3.378906 70.550781 C 3.621094 72.03125 4.417969 73.242188 5.695312 74.066406 C 7.0625 74.953125 5.582031 74.898438 29.394531 74.898438 L 50.730469 74.898438 L 50.730469 78.152344 L 29.25 78.136719 C 17.4375 78.128906 7.496094 78.082031 7.15625 78.03125 Z M 7.15625 78.03125 "/>
<path style=" stroke:none;fill-rule:nonzero;fill:rgb(23.921569%,91.372549%,15.686275%);fill-opacity:1;" d="M 11.726562 22.71875 C 11.769531 22.1875 11.867188 21.523438 11.949219 21.246094 C 12.152344 20.5625 13.253906 19.457031 13.929688 19.257812 C 14.277344 19.152344 15.714844 19.109375 18.722656 19.109375 L 23.015625 19.109375 L 23.015625 23.6875 L 11.652344 23.6875 Z M 11.726562 22.71875 "/>
<path style=" stroke:none;fill-rule:nonzero;fill:rgb(23.921569%,91.372549%,15.686275%);fill-opacity:1;" d="M 11.769531 31.199219 C 11.722656 31.15625 11.6875 30.152344 11.6875 28.972656 L 11.6875 26.824219 L 20.003906 26.824219 L 20.003906 31.28125 L 15.925781 31.28125 C 13.683594 31.28125 11.8125 31.246094 11.769531 31.199219 Z M 11.769531 31.199219 "/>
<path style=" stroke:none;fill-rule:nonzero;fill:rgb(23.921569%,91.372549%,15.686275%);fill-opacity:1;" d="M 13.675781 38.703125 C 12.429688 38.113281 11.855469 37.132812 11.730469 35.390625 L 11.652344 34.292969 L 23.015625 34.292969 L 23.015625 38.992188 L 18.648438 38.992188 C 14.304688 38.988281 14.273438 38.988281 13.675781 38.703125 Z M 13.675781 38.703125 "/>
<path style=" stroke:none;fill-rule:nonzero;fill:rgb(23.921569%,91.372549%,15.686275%);fill-opacity:1;" d="M 27.113281 36.648438 L 27.113281 34.292969 L 38.46875 34.292969 L 38.414062 35.40625 C 38.355469 36.695312 38.097656 37.398438 37.449219 38.046875 C 36.558594 38.9375 36.609375 38.929688 31.601562 38.964844 L 27.113281 39 Z M 27.113281 36.648438 "/>
<path style=" stroke:none;fill-rule:nonzero;fill:rgb(23.921569%,91.372549%,15.686275%);fill-opacity:1;" d="M 38.488281 28.992188 C 38.488281 27.699219 38.507812 27.171875 38.527344 27.816406 C 38.550781 28.460938 38.550781 29.519531 38.527344 30.167969 C 38.507812 30.8125 38.488281 30.285156 38.488281 28.992188 Z M 38.488281 28.992188 "/>
<path style=" stroke:none;fill-rule:nonzero;fill:rgb(23.921569%,91.372549%,15.686275%);fill-opacity:1;" d="M 27.113281 21.398438 L 27.113281 19.109375 L 31.511719 19.109375 C 36.324219 19.109375 36.320312 19.109375 37.238281 19.835938 C 37.960938 20.410156 38.355469 21.339844 38.417969 22.625 L 38.46875 23.6875 L 27.113281 23.6875 Z M 27.113281 21.398438 "/>
<path style=" stroke:none;fill-rule:nonzero;fill:rgb(23.921569%,91.372549%,15.686275%);fill-opacity:1;" d="M 30.125 29.050781 L 30.125 26.824219 L 38.4375 26.824219 L 38.4375 31.28125 L 30.125 31.28125 Z M 30.125 29.050781 "/>
<path style=" stroke:none;fill-rule:nonzero;fill:rgb(23.921569%,91.372549%,15.686275%);fill-opacity:1;" d="M 12.929688 51.648438 C 11.867188 51 11.9375 49.359375 13.046875 48.832031 C 13.433594 48.652344 14.300781 48.632812 22.25 48.632812 C 30.367188 48.632812 31.058594 48.648438 31.441406 48.84375 C 32.035156 49.144531 32.3125 49.582031 32.324219 50.234375 C 32.332031 50.875 32.089844 51.308594 31.53125 51.648438 C 31.160156 51.875 30.859375 51.882812 22.230469 51.882812 C 13.601562 51.882812 13.300781 51.878906 12.929688 51.648438 Z M 12.929688 51.648438 "/>
<path style=" stroke:none;fill-rule:nonzero;fill:rgb(23.921569%,91.372549%,15.686275%);fill-opacity:1;" d="M 12.953125 64.609375 C 12.003906 64.1875 11.640625 63.0625 12.191406 62.25 C 12.351562 62.019531 12.613281 61.761719 12.777344 61.679688 C 13.011719 61.5625 16.910156 61.527344 31.039062 61.527344 L 49.007812 61.523438 L 49.410156 61.796875 C 50.5 62.53125 50.207031 64.300781 48.945312 64.652344 C 48.648438 64.734375 42.550781 64.777344 30.90625 64.773438 C 16.515625 64.769531 13.25 64.738281 12.953125 64.609375 Z M 12.953125 64.609375 "/>
<path style=" stroke:none;fill-rule:nonzero;fill:rgb(23.921569%,91.372549%,15.686275%);fill-opacity:1;" d="M 39.324219 51.652344 C 39.117188 51.527344 38.859375 51.300781 38.753906 51.144531 C 38.480469 50.753906 38.503906 49.867188 38.800781 49.378906 C 39.269531 48.609375 38.996094 48.632812 48.507812 48.632812 C 56.183594 48.632812 57.183594 48.652344 57.546875 48.824219 C 58.664062 49.355469 58.742188 51.003906 57.679688 51.648438 C 57.308594 51.875 57.011719 51.882812 48.5 51.882812 C 40.050781 51.882812 39.6875 51.875 39.324219 51.652344 Z M 39.324219 51.652344 "/>
<path style=" stroke:none;fill-rule:nonzero;fill:rgb(23.921569%,91.372549%,15.686275%);fill-opacity:1;" d="M 62.597656 106.773438 C 60.207031 106.242188 58.214844 104.8125 57 102.753906 C 56.417969 101.765625 56.089844 100.792969 55.917969 99.5625 C 55.832031 98.917969 55.789062 92.101562 55.789062 77.941406 C 55.789062 57.605469 55.792969 57.253906 56.027344 56.773438 C 56.4375 55.925781 56.421875 55.929688 60.1875 55.863281 L 63.5625 55.800781 L 63.625 49.777344 C 63.679688 44.59375 63.71875 43.617188 63.90625 42.789062 C 65.515625 35.578125 70.796875 30.316406 77.960938 28.789062 C 79.417969 28.476562 83.371094 28.476562 84.828125 28.789062 C 91.917969 30.300781 97.125 35.410156 98.835938 42.539062 C 99.082031 43.5625 99.101562 44.007812 99.164062 49.714844 L 99.226562 55.800781 L 102.601562 55.863281 C 106.339844 55.929688 106.441406 55.949219 106.777344 56.742188 C 107.019531 57.3125 107.019531 99.039062 106.777344 100.203125 C 106.167969 103.15625 104 105.554688 101.035156 106.5625 L 100.070312 106.890625 L 81.695312 106.914062 C 66.769531 106.929688 63.183594 106.90625 62.597656 106.773438 Z M 99.835938 103.511719 C 101.742188 103.015625 103.148438 101.503906 103.574219 99.496094 C 103.714844 98.828125 103.742188 95.441406 103.746094 78.90625 L 103.746094 59.113281 L 59.042969 59.113281 L 59.042969 78.847656 C 59.042969 90.9375 59.089844 98.851562 59.160156 99.285156 C 59.40625 100.789062 60.402344 102.25 61.699219 103.011719 C 62.898438 103.714844 61.988281 103.683594 81.339844 103.691406 C 97.035156 103.699219 99.203125 103.675781 99.835938 103.511719 Z M 95.886719 49.867188 L 95.84375 43.871094 L 95.523438 42.691406 C 94.8125 40.074219 93.582031 37.953125 91.652344 36.023438 C 89.71875 34.089844 87.664062 32.902344 84.972656 32.160156 C 83.886719 31.859375 83.636719 31.835938 81.394531 31.835938 C 79.152344 31.835938 78.902344 31.859375 77.816406 32.160156 C 75.125 32.902344 73.070312 34.089844 71.136719 36.023438 C 69.207031 37.957031 67.988281 40.0625 67.257812 42.726562 L 66.945312 43.871094 L 66.859375 55.863281 L 95.929688 55.863281 Z M 95.886719 49.867188 "/>
<path style=" stroke:none;fill-rule:nonzero;fill:rgb(23.921569%,91.372549%,15.686275%);fill-opacity:1;" d="M 80.25 94.289062 C 78.253906 93.902344 76.382812 92.082031 75.917969 90.070312 C 75.851562 89.777344 75.796875 88.113281 75.792969 86.367188 L 75.792969 83.191406 L 75.082031 82.417969 C 74.28125 81.542969 73.488281 80.066406 73.175781 78.875 C 72.90625 77.832031 72.90625 75.820312 73.179688 74.78125 C 73.898438 72.019531 76.046875 69.714844 78.742188 68.808594 C 79.457031 68.566406 80.035156 68.46875 80.972656 68.425781 C 82.617188 68.351562 83.695312 68.578125 85.191406 69.3125 C 86.148438 69.78125 86.503906 70.042969 87.371094 70.914062 C 88.195312 71.742188 88.511719 72.167969 88.90625 72.976562 C 90.019531 75.253906 90.152344 77.59375 89.292969 79.867188 C 88.976562 80.703125 88.027344 82.164062 87.433594 82.726562 L 86.996094 83.140625 L 86.996094 86.246094 C 86.996094 89.714844 86.925781 90.246094 86.304688 91.441406 C 85.1875 93.585938 82.691406 94.761719 80.25 94.289062 Z M 82.710938 90.71875 C 82.96875 90.535156 83.308594 90.144531 83.464844 89.851562 C 83.742188 89.328125 83.746094 89.269531 83.746094 85.433594 L 83.746094 81.546875 L 84.347656 81.105469 C 85.976562 79.910156 86.863281 77.839844 86.527344 76.019531 C 85.730469 71.679688 80.375 70.132812 77.488281 73.410156 C 75.460938 75.714844 75.894531 79.234375 78.441406 81.105469 L 79.046875 81.546875 L 79.046875 85.421875 C 79.050781 88.949219 79.070312 89.34375 79.277344 89.796875 C 79.515625 90.324219 80.136719 90.871094 80.695312 91.050781 C 81.273438 91.234375 82.1875 91.085938 82.710938 90.71875 Z M 82.710938 90.71875 "/>
</g>
</svg>
