<svg xmlns="http://www.w3.org/2000/svg" width="107" height="107"><path style="stroke:none;fill-rule:nonzero;fill:#78cfcf;fill-opacity:1" d="M98.645 7.934H8.359C3.75 7.934 0 11.687 0 16.297v53.508c0 4.61 3.75 8.363 8.36 8.363h42.41V74.82H8.36a5.024 5.024 0 0 1-5.016-5.015V16.297a5.016 5.016 0 0 1 5.015-5.016h90.286a5.019 5.019 0 0 1 5.015 5.016v33.918c.582 0 2.813-.137 3.34 0V16.297c0-4.61-3.75-8.363-8.355-8.363Zm0 0"/><path style="stroke:none;fill-rule:nonzero;fill:#78cfcf;fill-opacity:1" d="M11.703 26.734h8.36v4.536h-8.36Zm0 7.512v1.488a3.34 3.34 0 0 0 3.344 3.34h7.984v-4.828Zm26.75-10.476v-1.415a3.34 3.34 0 0 0-3.344-3.343h-7.996v4.758Zm-15.422-4.758h-7.984a3.34 3.34 0 0 0-3.344 3.343v1.415h11.328Zm7.063 7.722h8.36v4.536h-8.36Zm-2.981 12.344h7.996c1.852 0 3.344-1.5 3.344-3.344v-1.488h-11.34Zm21.375 25.707H13.531c-.933 0-1.672-.75-1.672-1.676 0-.93.739-1.672 1.672-1.672h34.957c.926 0 1.668.743 1.668 1.672 0 .926-.742 1.676-1.668 1.676Zm8.356-16.18H40.125a1.68 1.68 0 0 0-1.672 1.676 1.67 1.67 0 0 0 1.672 1.668h16.719c.922 0 1.676-.742 1.676-1.668a1.68 1.68 0 0 0-1.676-1.676Zm-26.11 0H13.762a1.68 1.68 0 0 0-1.672 1.676c0 .926.75 1.668 1.672 1.668h16.972c.922 0 1.676-.742 1.676-1.668a1.68 1.68 0 0 0-1.676-1.676Zm74.598 7.172H99.27v-9.496c0-9.847-8.024-17.863-17.875-17.863-9.86 0-17.86 8.016-17.86 17.863v9.496h-6.078c-.918 0-1.672.739-1.672 1.664v41.043A8.51 8.51 0 0 0 64.297 107H98.5c4.684 0 8.5-3.816 8.5-8.516V57.441c0-.925-.738-1.664-1.668-1.664Zm-38.465-9.496c0-8.008 6.52-14.523 14.528-14.523 8.011 0 14.53 6.515 14.53 14.523v9.496H66.868Zm36.793 52.203c0 2.86-2.316 5.18-5.16 5.18H64.297a5.174 5.174 0 0 1-5.168-5.18V59.117h44.531Zm0 0"/><path style="stroke:none;fill-rule:nonzero;fill:#78cfcf;fill-opacity:1" d="M81.395 68.324c-4.7 0-8.512 3.813-8.512 8.504a8.537 8.537 0 0 0 2.847 6.34v5.644c0 3.11 2.54 5.641 5.665 5.641 3.109 0 5.656-2.531 5.656-5.64v-5.645a8.528 8.528 0 0 0 2.855-6.34c0-4.691-3.824-8.504-8.511-8.504ZM84.39 81.02l-.688.5v7.293a2.302 2.302 0 0 1-2.308 2.292c-1.282 0-2.325-1.027-2.325-2.293V81.52l-.687-.5a5.186 5.186 0 0 1-2.153-4.192 5.168 5.168 0 0 1 5.165-5.156c2.843 0 5.168 2.32 5.168 5.156.003 1.645-.82 3.207-2.172 4.192Zm0 0"/><path style="stroke:none;fill-rule:nonzero;fill:#3de928;fill-opacity:1" d="M7.156 78.031c-1.75-.254-3.27-1.043-4.636-2.402-.836-.832-1.133-1.227-1.536-2.055-1.015-2.082-.918.914-.957-29.883-.023-18.273.004-27.726.086-28.355.422-3.188 2.41-5.691 5.457-6.867l.996-.383h93.746l.977.336a8.407 8.407 0 0 1 5.59 6.86c.066.515.113 7.91.117 17.866L107 50.137l-1.629.011-1.625.012V33.22c0-11.055-.043-17.207-.125-17.707-.266-1.625-1.363-3.078-2.86-3.79l-.812-.382H7.051l-.813.383c-1.504.714-2.593 2.172-2.867 3.847-.164 1.012-.156 53.957.008 54.98.242 1.481 1.039 2.692 2.316 3.516 1.367.887-.113.832 23.7.832H50.73v3.254l-21.48-.015c-11.813-.008-21.754-.055-22.094-.106Zm0 0"/><path style="stroke:none;fill-rule:nonzero;fill:#3de928;fill-opacity:1" d="M11.727 22.719c.043-.532.14-1.196.222-1.473.203-.683 1.305-1.789 1.98-1.988.348-.106 1.786-.149 4.794-.149h4.293v4.578H11.652Zm.043 8.481c-.047-.044-.082-1.048-.082-2.227v-2.149h8.316v4.457h-4.078c-2.242 0-4.114-.035-4.156-.082Zm1.906 7.503c-1.246-.59-1.82-1.57-1.946-3.312l-.078-1.098h11.364v4.7h-4.368c-4.343-.005-4.375-.005-4.972-.29Zm13.437-2.055v-2.355H38.47l-.055 1.113c-.059 1.29-.316 1.992-.965 2.64-.89.892-.84.884-5.847.919l-4.49.035Zm11.375-7.656c0-1.293.02-1.82.04-1.176.023.645.023 1.704 0 2.352-.02.645-.04.117-.04-1.176Zm-11.375-7.594V19.11h4.399c4.812 0 4.808 0 5.726.727.723.574 1.117 1.504 1.18 2.789l.05 1.063H27.114Zm3.012 7.652v-2.226h8.313v4.457h-8.313ZM12.93 51.648c-1.063-.648-.992-2.289.117-2.816.387-.18 1.254-.2 9.203-.2 8.117 0 8.809.016 9.191.212.594.3.872.738.883 1.39.008.641-.234 1.075-.793 1.414-.37.227-.672.235-9.3.235-8.63 0-8.93-.004-9.301-.235Zm.023 12.962c-.95-.422-1.312-1.547-.762-2.36.16-.23.422-.488.586-.57.235-.117 4.133-.153 18.262-.153l17.969-.004.402.274c1.09.734.797 2.504-.465 2.855-.297.082-6.394.125-18.039.121-14.39-.003-17.656-.035-17.953-.164Zm26.371-12.958c-.207-.125-.465-.351-.57-.507-.274-.391-.25-1.278.047-1.766.469-.77.195-.746 9.707-.746 7.676 0 8.676.02 9.039.191 1.117.531 1.195 2.18.133 2.824-.371.227-.668.235-9.18.235-8.45 0-8.813-.008-9.176-.23Zm23.274 55.121c-2.391-.53-4.383-1.96-5.598-4.02-.582-.987-.91-1.96-1.082-3.19-.086-.645-.129-7.461-.129-21.622 0-20.336.004-20.687.238-21.168.41-.847.395-.843 4.16-.91l3.376-.062.062-6.024c.055-5.183.094-6.16.281-6.988 1.61-7.21 6.89-12.473 14.055-14 1.457-.312 5.41-.312 6.867 0 7.09 1.512 12.297 6.621 14.008 13.75.246 1.023.266 1.469.328 7.176l.063 6.086 3.375.062c3.738.067 3.84.086 4.175.88.243.57.243 42.296 0 43.46-.609 2.953-2.777 5.352-5.742 6.36l-.965.328-18.375.023c-14.925.016-18.511-.008-19.097-.14Zm37.238-3.261c1.906-.496 3.312-2.008 3.738-4.016.14-.668.168-4.055.172-20.59V59.113H59.043v19.735c0 12.09.047 20.004.117 20.437.246 1.504 1.242 2.965 2.54 3.727 1.198.703.288.672 19.64.68 15.695.007 17.863-.016 18.496-.18Zm-3.95-53.645-.042-5.996-.32-1.18c-.712-2.617-1.942-4.738-3.872-6.668-1.933-1.933-3.988-3.12-6.68-3.863-1.085-.3-1.335-.324-3.577-.324-2.243 0-2.493.023-3.579.324-2.691.742-4.746 1.93-6.68 3.863-1.929 1.934-3.148 4.04-3.878 6.704l-.313 1.144-.086 11.992h29.07Zm0 0"/><path style="stroke:none;fill-rule:nonzero;fill:#3de928;fill-opacity:1" d="M80.25 94.29c-1.996-.388-3.867-2.208-4.332-4.22-.066-.293-.121-1.957-.125-3.703v-3.176l-.711-.773c-.8-.875-1.594-2.352-1.906-3.543-.27-1.043-.27-3.055.004-4.094.718-2.761 2.867-5.066 5.562-5.972.715-.243 1.293-.34 2.23-.383 1.645-.074 2.723.152 4.22.886.956.47 1.312.731 2.18 1.602.823.828 1.14 1.254 1.534 2.063 1.114 2.277 1.246 4.617.387 6.89-.316.836-1.266 2.297-1.86 2.86l-.437.414v3.105c0 3.469-.07 4-.691 5.195-1.118 2.145-3.614 3.32-6.055 2.848Zm2.46-3.571a2.98 2.98 0 0 0 .755-.867c.277-.524.281-.582.281-4.418v-3.887l.602-.442c1.629-1.195 2.515-3.265 2.18-5.085-.798-4.34-6.153-5.887-9.04-2.61-2.027 2.305-1.593 5.824.953 7.695l.606.442v3.875c.004 3.527.023 3.922.23 4.375.239.527.86 1.074 1.418 1.254.578.183 1.493.035 2.016-.332Zm0 0"/></svg>