<svg xmlns="http://www.w3.org/2000/svg" width="107" height="107"><path style="stroke:none;fill-rule:nonzero;fill:#000;fill-opacity:1" d="M106.059 40.746c-.278-.45-.555-.898-.973-1.047.418-.601.695-1.5.555-2.25-.137-3.297-1.524-10.039-8.325-18.43-6.933-8.394-13.039-10.64-15.953-11.242-.554-.148-.972 0-1.386 0-.141-.75-.555-1.496-1.11-1.945C76.507 3.73 70.957.434 60.555.434c-10.407 0-15.957 3.449-18.453 5.398-1.25 1.047-1.664 2.695-.973 4.195l2.219 5.543 13.875 36.266c0 .152.14.3.277.45-.277-.15-.691-.15-1.11-.15l-36.488 3.446-5.547.45c-1.527.152-2.777 1.35-3.054 3-.555 3.296-.692 10.19 4.3 19.929 4.856 9.89 10.407 13.488 13.18 14.836.418.152.832.3 1.387.3h.14c0 .75.278 1.5.696 2.247 1.941 2.55 6.52 7.344 16.648 9.89 3.606.903 6.657 1.2 9.293 1.2 4.72 0 7.91-1.047 9.711-1.946.418-.152.832-.601 1.11-.902.554.453 1.25.902 1.945.902h.832c3.328 0 9.293-1.05 16.926-6.894 8.46-6.446 11.238-12.739 12.207-15.887.14-.45.14-1.047.14-1.496.692-.152 1.387-.45 1.942-1.05 2.219-2.4 5.965-7.942 7.074-19.032 1.39-11.09-1.11-17.535-2.773-20.383ZM80.113 11.074c.14-.297.418-.449.555-.297 2.637.598 8.187 2.547 14.43 10.188 6.242 7.644 7.492 13.637 7.632 16.637 0 .296-.14.449-.418.597l-2.218.899c-.278-2.996-1.664-8.692-7.356-15.735-5.687-7.043-10.957-9.14-13.734-9.742Zm20.117 49.004c-.968 9.145-4.16 13.488-5.546 14.988-.141.149-.278.149-.418 0l-16.23-10.191-14.294-9.742 16.235-5.844 17.62-5.394c.137 0 .278 0 .415.148 1.11 1.8 3.191 6.895 2.218 16.035Zm-22.058-43.61c1.805.302 6.797 1.95 12.625 8.993 5.687 6.894 6.52 12.437 6.66 14.387 0 .152-.14.3-.277.3l-17.9 6.293-16.23 4.946 6.797-16.934 8.047-17.832c0-.152.14-.152.277-.152Zm-34.684-7.49c-.14-.301 0-.598.14-.75 2.22-1.797 7.212-4.793 16.65-4.793 9.433 0 14.425 2.996 16.507 4.793.14.152.278.449.14.75l-.972 2.398c-2.36-1.797-7.074-4.496-15.676-4.496-8.605 0-13.597 2.7-15.816 4.496Zm2.219 5.546c0-.152 0-.3.14-.449 1.524-1.199 5.965-4.199 14.567-4.199 8.324 0 12.625 2.55 14.43 4.2.136.148.136.296.136.448l-7.492 18.73-7.77 17.384Zm14.29 39.563v.297s-.138 0-.278.152c-.137 0-.137 0-.278-.152 0-.149 0-.297-.136-.45l-.14-.148c.14 0 .417.149.554.149.14.152.14.152.277.152Zm-1.665 4.496 3.469 18.133 2.914 19.48c0 .149 0 .301-.137.45-1.668.898-6.66 2.546-14.984.449-8.324-2.098-11.934-5.992-13.18-7.64-.14-.153-.14-.302 0-.45l11.238-16.336ZM30.586 90.949c-.14.153-.418.301-.695.153-1.942-.899-7.211-4.196-11.93-13.637-4.441-8.992-4.441-15.137-3.887-17.985 0-.3.281-.449.559-.449l2.496-.152c-.418 3-.277 8.992 3.746 17.086 4.16 8.242 8.602 11.539 11.238 12.887Zm-7.352-16.332c-4.023-8.094-3.746-13.637-3.468-15.738 0-.149.136-.297.277-.297l36.348-3.297c-.137.149-.278.149-.278.297L45.57 70.872 34.055 86.304c-.14.148-.278.148-.418.148-1.801-.898-6.242-3.746-10.403-11.836ZM65.41 102.79c-1.945 1.05-7.633 2.996-17.344.602-9.296-2.399-13.457-6.594-15.12-8.844-.141-.149-.141-.45 0-.75l1.523-2.098c1.804 2.399 5.968 6.145 14.293 8.242 3.191.75 5.824 1.051 8.183 1.051 3.887 0 6.52-.898 8.188-1.648l.414 2.695c.277.45.14.75-.137.75Zm2.91-6.742-3.742-19.934-2.777-17.98 14.844 9.289 15.402 10.64c.137.149.137.301.137.45-.555 1.949-2.633 7.043-9.711 12.437-7.075 5.246-12.07 5.696-14.012 5.547 0-.152-.14-.152-.14-.45Zm17.621.148c-7.77 5.844-13.457 6.446-16.093 6.293-.278 0-.414-.148-.555-.449l-.414-2.695h.277c2.91 0 8.184-.899 14.98-5.996 7.079-5.395 9.716-10.641 10.548-13.489l2.078 1.352c.277.148.277.45.277.746-.555 2.25-2.91 8.094-11.098 14.238ZM106.2 60.828c-1.113 10.192-4.441 15.137-6.383 17.234-.14.149-.418.301-.695.149l-2.082-1.348c1.945-2.246 4.996-7.191 5.969-16.336.969-9.289-.973-14.836-2.36-17.53l2.36-.75c.277-.15.555 0 .691.3 1.387 2.398 3.61 8.09 2.5 18.281Zm0 0"/><path style="stroke:none;fill-rule:nonzero;fill:#000;fill-opacity:1" d="M66.242 13.023c-2.777 0-4.996 2.399-4.996 5.395 0 2.996 2.219 5.395 4.996 5.395 2.774 0 4.992-2.399 4.992-5.395 0-2.996-2.218-5.395-4.992-5.395Zm0 7.942c-1.25 0-2.222-1.047-2.222-2.399 0-1.347.972-2.394 2.222-2.394 1.246 0 2.219 1.047 2.219 2.394 0 1.352-.973 2.399-2.219 2.399Zm-6.523 4.495c-2.633 0-4.715 2.25-4.715 5.099 0 2.847 2.082 5.093 4.715 5.093 2.636 0 4.718-2.246 4.718-5.093 0-2.848-2.082-5.098-4.718-5.098Zm-.137 7.196c-1.11 0-1.941-.898-1.941-2.097 0-1.2.832-2.102 1.941-2.102 1.11 0 1.941.902 1.941 2.102 0 1.199-.832 2.097-1.941 2.097Zm24.832-7.343c-1.523-1.801-4.16-1.95-5.824-.301-.832.75-1.25 1.949-1.387 2.996 0 1.199.277 2.398.969 3.148.695 1.051 1.805 1.649 2.914 1.649h.277c.973 0 1.942-.45 2.774-1.2 1.668-1.648 1.804-4.496.277-6.293Zm-2.355 4.343c-.278.301-.555.45-.973.301-.418 0-.695-.148-.973-.45-.277-.3-.414-.597-.277-1.05.14-.45.277-.898.555-1.047.277-.3.558-.3.836-.3.414 0 .691.152.968.449.555.601.418 1.5-.136 2.097Zm13.593 32.371c-.968-1.047-2.078-1.797-3.328-1.949-2.636-.297-5.133 1.8-5.41 4.649-.277 2.847 1.664 5.543 4.3 5.843h.556c2.496 0 4.578-1.949 4.855-4.644.137-1.352-.277-2.848-.973-3.899Zm-4.16 5.696c-1.25-.149-2.082-1.348-1.941-2.547.136-1.352 1.246-2.25 2.355-2.098.555 0 1.11.45 1.387.899.281.449.559 1.046.559 1.648-.141 1.348-1.25 2.246-2.36 2.098Zm5.41-19.183c-.554-.9-1.527-1.497-2.636-1.65-1.11-.148-2.22.153-3.051.9a4.76 4.76 0 0 0-1.528 3c-.136 1.198.141 2.398.833 3.296.695.898 1.664 1.496 2.773 1.648h.418c.973 0 1.805-.3 2.496-.898a4.74 4.74 0 0 0 1.527-3c.141-1.2-.136-2.398-.832-3.297Zm-2.359 3.898c-.277.296-.691.296-.969.296-.418 0-.695-.297-.836-.597-.277-.301-.277-.75-.277-1.051 0-.45.277-.746.555-.898.277-.297.695-.297.972-.297.418 0 .696.297.832.597.14.301.278.75.278 1.051 0 .297-.278.746-.555.898ZM76.09 70.57c-.832-1.199-1.8-1.949-3.05-2.097-1.25-.301-2.497 0-3.606.898-2.082 1.649-2.637 4.797-1.114 7.192.836 1.351 2.36 2.097 3.887 2.097.973 0 1.941-.297 2.773-.898 1.11-.75 1.805-1.946 1.946-3.297.277-1.348 0-2.695-.836-3.895Zm-1.942 3.446c-.136.601-.414 1.05-.832 1.347-.832.75-2.082.453-2.773-.597-.555-.899-.418-2.246.555-2.996.832-.602 2.082-.45 2.773.597.277.45.418 1.051.277 1.649ZM56.39 83.758c-1.109-.301-2.218-.153-3.05.597-.973.602-1.528 1.649-1.805 2.7-.695 2.398.695 4.797 2.914 5.394.278.149.692.149.969.149 1.805 0 3.61-1.348 4.023-3.446.555-2.398-.832-4.797-3.05-5.394Zm.141 4.797c-.14.746-.836 1.195-1.668 1.047-.414-.149-.691-.301-.832-.598-.136-.3 0-.75 0-1.2.14-.449.278-.75.555-.898.277-.152.418-.152.695-.152h.278c.695.152 1.109.898.972 1.8ZM31.836 62.328c-1.25-2.547-4.3-3.598-6.66-2.098-2.36 1.348-3.332 4.645-1.942 7.192.832 1.8 2.633 2.848 4.301 2.848.832 0 1.524-.149 2.356-.598 2.359-1.5 3.191-4.797 1.945-7.344Zm-3.332 4.645c-1.11.601-2.36.148-2.914-.899-.555-1.199-.137-2.547.832-3.148 1.113-.598 2.36-.149 2.914.898.555 1.051.14 2.551-.832 3.149Zm16.094-4.047c-.555-1.2-1.664-2.098-2.774-2.547-1.25-.45-2.496-.3-3.61.45-1.109.6-1.94 1.8-2.355 2.995-.418 1.352-.277 2.7.414 3.899.555 1.347 1.528 2.246 2.774 2.547.418.148.973.148 1.39.148.833 0 1.524-.148 2.22-.598 1.109-.597 1.94-1.797 2.359-2.996.414-1.351.277-2.699-.418-3.898Zm-3.328 4.347c-.418.301-.973.301-1.528.149-.554-.149-.972-.598-1.11-1.047-.14-.45-.277-1.05-.14-1.648.14-.602.555-1.051.973-1.2.418-.3.972-.3 1.527-.152.555.152.969.602 1.11 1.05.554 1.048.136 2.4-.832 2.848Zm8.46-25.328L27.395 10.777l-3.47-4.797c-.968-1.347-2.495-1.8-3.882-1.05-2.777 1.351-8.188 4.945-13.18 14.687C1.867 29.36 2.008 36.402 2.422 39.7c.277 1.649 1.387 2.848 2.914 2.996l5.55.45 36.071 4.195h.414c1.113 0 2.082-.598 2.637-1.649.554-1.199.554-2.546-.278-3.746ZM8.11 40l-2.36-.3c-.277 0-.414-.302-.555-.45-.414-2.848-.414-9.145 4.024-18.133 4.578-8.992 9.437-12.289 11.793-13.34.277-.148.554 0 .695.153l1.527 2.097c-2.636 1.348-7.078 4.645-11.238 12.739C7.832 31.008 7.696 36.852 8.11 40Zm39.68 4.195c-.138.149-.138.149-.278.149l-36.07-4.196c-.278 0-.419-.148-.419-.3-.277-2.098-.554-7.641 3.61-15.735 4.16-8.093 8.601-10.789 10.265-11.687.137 0 .278 0 .415.148l22.476 31.172c.14.149.14.297 0 .45Zm0 0"/><path style="stroke:none;fill-rule:nonzero;fill:#000;fill-opacity:1" d="M29.059 21.117c-.414-1.351-1.247-2.55-2.36-3.148a4.15 4.15 0 0 0-3.742-.45c-1.25.45-2.36 1.348-2.914 2.547-.695 1.2-.832 2.7-.418 4.047.418 1.348 1.25 2.547 2.36 3.297.695.45 1.527.598 2.359.598 1.8 0 3.468-1.047 4.3-2.848.692-1.195.833-2.695.415-4.043Zm-2.914 2.695a2.022 2.022 0 0 1-2.91.899c-.555-.297-.837-.746-.973-1.348-.14-.597 0-1.199.277-1.797.277-.601.695-.898 1.25-1.05.137 0 .414-.149.555-.149.414 0 .691.149.968.301.555.297.833.746.973 1.348.137.597.137 1.199-.14 1.797Zm5.136 7.946c-1.945-1.5-4.441-.75-5.55 1.496-.555 1.05-.696 2.25-.278 3.45a4.196 4.196 0 0 0 1.942 2.694c.554.301 1.25.602 1.94.602.419 0 .833 0 1.11-.152 1.114-.301 1.946-1.047 2.5-2.098 1.11-2.098.414-4.797-1.664-5.992Zm-.695 4.195c-.418.75-1.11.899-1.805.598-.277-.149-.554-.45-.691-.899-.14-.449 0-.75.137-1.05a1.47 1.47 0 0 1 .832-.747c0 .149.14 0 .277 0 .277 0 .418 0 .695.149.692.45.832 1.2.555 1.95Zm-11.098-2.098-1.668-3.75c-.277-.746-1.11-1.046-1.8-.746-.696.297-.973 1.2-.696 1.946l1.664 3.75c.278.597.696.898 1.25.898.137 0 .418 0 .555-.152.695-.297.973-1.2.695-1.946Zm36.625-12.14-1.664-3.746c-.277-.75-1.11-1.051-1.804-.75-.692.3-.973 1.199-.692 1.949l1.664 3.746c.278.598.692.898 1.246.898.14 0 .418 0 .555-.148.695-.3 1.113-1.2.695-1.95ZM80.531 40.45l-1.664-3.747c-.277-.75-1.11-1.05-1.805-.75-.695.297-.972 1.2-.695 1.945l1.668 3.75c.278.598.692.899 1.246.899.14 0 .418 0 .555-.152.695-.297.973-1.2.695-1.946ZM47.234 89.3l-1.664-3.745c-.277-.75-1.11-1.047-1.804-.75-.696.3-.973 1.199-.696 1.949l1.668 3.746c.278.602.692.898 1.246.898.141 0 .418 0 .555-.148.695-.3.973-1.2.695-1.95Zm28.442-3.296-3.887-.746c-.691-.153-1.523.449-1.664 1.195-.137.75.418 1.649 1.11 1.8l3.886.75h.277c.692 0 1.247-.448 1.387-1.198.278-.899-.277-1.649-1.11-1.801Zm6.383-28.024-3.887-.75c-.692-.148-1.527.45-1.664 1.2-.14.75.418 1.648 1.11 1.8l3.886.75h.277c.692 0 1.246-.453 1.387-1.199.137-.75-.418-1.648-1.11-1.8Zm9.57-23.378-3.883-.747c-.695-.152-1.527.45-1.664 1.2-.14.898.414 1.648 1.11 1.797l3.882.75h.278c.695 0 1.25-.45 1.386-1.2.14-.75-.414-1.648-1.11-1.8ZM56.113 76.266 54.45 72.52c-.277-.75-1.11-1.051-1.804-.75-.692.296-.973 1.199-.692 1.945l1.664 3.75c.278.597.692.898 1.246.898.14 0 .418 0 .555-.152.695-.297.973-1.2.695-1.945Zm-21.503-1.95c-.419-.601-1.387-.75-1.942-.148l-3.055 2.695c-.554.45-.691 1.5-.136 2.098.277.3.691.602 1.109.602.277 0 .555-.153.832-.301l3.05-2.7c.555-.597.696-1.496.141-2.246Zm38.292-31.621c-.418-.597-1.39-.75-1.945-.148l-3.05 2.547c-.555.597-.696 1.5-.141 2.097.277.301.695.598 1.113.598.277 0 .555-.148.832-.297l3.05-2.699c.555-.45.696-1.496.141-2.098ZM85.25 78.813c-.418-.602-1.39-.75-1.945-.153l-3.051 2.7c-.555.449-.695 1.5-.14 2.097.277.3.695.45 1.113.45.277 0 .554-.15.832-.302l3.05-2.695c.555-.45.696-1.5.141-2.097Zm0 0"/><path style="stroke:none;fill-rule:nonzero;fill:#3de928;fill-opacity:1" d="M51.203 106.785c-3.121-.562-8.543-2.293-11.035-3.523-3.66-1.813-8.242-5.594-8.992-7.422-.41-1-1.38-1.863-3.094-2.762-1.547-.808-3.789-2.719-5.895-5.02-6.035-6.585-10.316-16.25-10.757-24.265-.242-4.426.261-6.414 1.793-7.094.566-.25 10.699-1.344 22.515-2.43 11.817-1.085 21.555-2.046 21.637-2.136.082-.09-3.516-9.735-7.996-21.43-4.484-11.7-8.149-21.863-8.149-22.59 0-2.215 4.543-4.949 10.743-6.468C56.09.64 64.805.605 69.113 1.585c3.977.9 9.637 3.853 10.27 5.352.332.79.875 1.122 1.879 1.153 2.082.066 8.289 3.586 11.57 6.562 3.863 3.512 7.93 9.118 10.055 13.868 1.742 3.886 2.93 8.89 2.437 10.273-.14.395.153 1.441.649 2.324 4.312 7.64 3.777 23.711-1.125 33.785-.891 1.832-2.36 4.032-3.262 4.887-.902.856-1.969 2.473-2.367 3.594-2.664 7.515-11.485 16.125-20.508 20.015-3.398 1.465-8.727 2.2-10.07 1.391-.618-.371-1.118-.309-1.899.246-2.363 1.672-10.722 2.613-15.539 1.75Zm12.809-3.133c1.383-.5 1.699-.851 1.695-1.879-.016-2.363-.465-2.597-3.414-1.77-7.781 2.192-20.16-1.007-25.863-6.683l-1.996-1.988-.895 1.16c-1.21 1.574-1.156 1.95.55 3.727 3.333 3.472 10.036 6.722 16.388 7.949 3.027.586 11.37.27 13.535-.516Zm11.383-1.715c7.957-2.218 17.945-10.59 20.996-17.59l1.066-2.449-1.164-1.101c-.637-.606-1.3-1.094-1.477-1.082-.171.012-.77 1.07-1.328 2.355-3.097 7.153-13.5 15.227-21.562 16.743-2.88.542-3.04.644-3.04 1.91 0 .734.137 1.484.302 1.664.519.562 3.304.36 6.207-.45ZM62.094 97.77c1.277-.297 2.426-.832 2.55-1.192.57-1.598-5.484-37.117-6.39-37.512-.852-.367-22.012 28.778-22.012 30.313 0 .855 3.09 3.48 5.89 5.008 2.411 1.312 7.423 3.035 10.43 3.578 2.336.426 7.29.324 9.532-.195Zm10.058-1.47c5.434-1.218 13.149-6.448 16.746-11.359 1.872-2.558 3.91-6.523 3.536-6.886-.11-.106-3.871-2.72-8.36-5.805-9.472-6.508-21.926-14.332-22.254-13.98-.43.464 5.735 36.917 6.457 38.199.282.496 1.043.465 3.875-.168ZM31.43 90.243c.402-.664.73-1.289.73-1.387 0-.097-1.035-.906-2.3-1.793-6.38-4.46-12.63-17.242-12.653-25.855-.008-2.52-.035-2.57-1.352-2.57-1.918 0-2.464 1.379-2.12 5.375.828 9.582 7.035 21.086 14.113 26.148 2.23 1.594 2.66 1.602 3.582.082Zm8.765-11.77c3.227-4.312 8.246-11.308 11.153-15.55l5.285-7.715-1.696.04c-.93.019-9.242.733-18.468 1.589L19.69 58.39l-.136 2.582c-.395 7.441 5.504 19.738 11.543 24.058 1.191.852 2.406 1.489 2.699 1.414.289-.078 3.168-3.664 6.398-7.972Zm62.942-5.378c2.258-4.996 2.988-8.52 3.246-15.68.238-6.57-.336-10.68-1.969-14.094-.594-1.234-.84-1.36-2.117-1.066-.797.184-1.52.406-1.606.488-.086.086.32 1.438.903 3.004.949 2.563 1.054 3.621 1.047 10.441-.004 7.016-.102 7.891-1.262 11.508-.692 2.157-1.961 5.075-2.82 6.485-.86 1.41-1.563 2.668-1.563 2.8 0 .13.563.555 1.246.946 1.149.656 1.332.629 2.293-.34.578-.578 1.746-2.602 2.602-4.492Zm-6.594-.258c.8-1.348 1.984-4.156 2.625-6.242 2.09-6.778 1.516-20.422-.95-22.551-.906-.785-35.042 10.297-34.523 11.203.586 1.024 29.836 20 30.875 20.027.285.008 1.172-1.09 1.973-2.437ZM60.273 54.23c0-.27-.32-.492-.707-.492-.39 0-.582.223-.43.492.157.27.473.489.708.489.234 0 .43-.219.43-.489Zm27.672-10.582 9.602-3.34-.223-2.136c-.793-7.574-10.672-19.379-18.164-21.7l-1.293-.402-4.277 9.547C69.492 34.766 62.992 50.5 62.992 51.273c0 .497 13.149-3.523 24.953-7.625Zm-24.058-1.8c2.199-4.926 5.672-13.13 7.71-18.235l3.708-9.277-1.282-1.121c-4.347-3.793-16.87-4.598-24.378-1.563-5.024 2.032-5.278.141 2.8 20.907 3.903 10.03 7.176 18.242 7.27 18.242.094 0 1.972-4.028 4.172-8.953Zm38.3-3.457c1.149-.907.665-4.075-1.292-8.461-3.586-8.028-10.782-15.668-17.395-18.47-2.824-1.19-3.566-1.062-4.14.724-.633 1.96-.65 1.886.335 1.886 1.473 0 6.106 2.82 9.024 5.489 5.203 4.761 10.105 12.746 10.84 17.652.296 1.988 1.132 2.363 2.629 1.18ZM52.79 7.953c4.012-.91 10.89-.93 14.793-.035 1.652.379 4.254 1.371 5.79 2.207l2.784 1.52.446-1.27c.761-2.164.527-2.566-2.387-4.113-7.13-3.782-19.762-3.953-27.094-.371-1.371.668-2.871 1.53-3.34 1.918-.789.652-.797.8-.133 2.187l.711 1.484 2.63-1.402c1.445-.773 4.058-1.73 5.8-2.125Zm0 0"/><path style="stroke:none;fill-rule:nonzero;fill:#3de928;fill-opacity:1" d="M27.629 44.906c-8.606-1.027-17.352-2.023-19.442-2.21-5.394-.493-5.808-1.094-5.53-8.055.316-7.907 5.417-18.739 11.855-25.176 3.601-3.602 6.293-5.09 7.832-4.332 1.18.578 27.203 36.535 27.718 38.3.192.641.028 1.512-.417 2.25-.653 1.075-1.028 1.196-3.551 1.145-1.555-.031-9.864-.894-18.465-1.922Zm20.398-.84c0-.355-21.21-30.043-22.437-31.406-.88-.976-3.102.63-6.719 4.852-4.805 5.601-8.004 13.523-8.012 19.843l-.007 2.961 16.89 2.004c17.91 2.125 20.29 2.332 20.285 1.746Zm-39.894-6.41c0-9.09 7.355-23.02 14.176-26.836 1.234-.691 1.242-.722.453-1.894-1.055-1.57-2.047-1.524-4.383.21-6.73 5.005-12.758 16.598-13.305 25.602-.285 4.649-.082 5.29 1.684 5.29 1.34 0 1.375-.06 1.375-2.372Zm0 0"/><path style="stroke:none;fill-rule:nonzero;fill:#3de928;fill-opacity:1" d="M21.602 26.797c-1.735-1.473-2.34-3.899-1.512-6.04 1.336-3.456 4.914-4.23 7.355-1.593 2.145 2.316 2.145 4.637 0 6.953-1.828 1.977-4.015 2.23-5.843.68Zm4.21-2.442c1.047-1.132 1.141-1.949.34-3.023-1.453-1.95-3.965-.965-3.965 1.559 0 2.32 2.063 3.152 3.625 1.464ZM17.3 35.008c-1.077-1.43-1.921-4.418-1.429-5.059.266-.351.75-.531 1.066-.398.801.332 2.711 4.863 2.333 5.527-.415.723-1.395.688-1.97-.07Zm9.509 3.402c-.54-.617-1.11-1.82-1.266-2.672-.242-1.293-.063-1.793 1.09-3.039 1.699-1.832 3.191-1.898 5.039-.219 2.789 2.532 1.316 7.055-2.293 7.055-1.074 0-1.91-.363-2.57-1.125Zm3.691-2.387c.621-1.062.055-2.363-1.027-2.363-1.34 0-2.035 1.684-1.114 2.68.828.894 1.493.797 2.141-.317Zm-5.727 32.891c-.636-.543-1.394-1.746-1.675-2.676-1.11-3.633 2.308-7.328 5.672-6.129 1.94.692 3.39 2.614 3.39 4.496 0 1.786-1.094 4.13-2.242 4.793-1.41.817-3.887.582-5.145-.484Zm4.47-2.664c.937-1.547.48-3.11-1.036-3.52-1.535-.417-2.586.336-2.766 1.985-.296 2.707 2.422 3.808 3.801 1.535Zm.499 12.629c-.691-.75-.183-1.688 1.824-3.34 1.934-1.594 2.184-1.68 2.832-.973.645.704.536.95-1.199 2.707-1.832 1.856-2.808 2.309-3.457 1.606Zm8.766-9.098c-1.543-.87-2.938-3.765-2.574-5.344.16-.68.832-1.824 1.496-2.539 2.644-2.859 7.425-.734 7.425 3.305 0 3.399-3.695 6.067-6.347 4.578Zm3.87-3.34c.509-.882-.202-2.828-1.151-3.152-1.961-.672-3.5.8-2.914 2.793.519 1.773 3.128 2.004 4.066.36ZM53.05 91.16c-3.359-3.055-.132-8.64 3.93-6.797 2.692 1.223 3.188 4.336 1.06 6.633-1.645 1.777-3.161 1.828-4.99.164Zm3.067-1.61c.332-.23.54-.94.453-1.585-.191-1.461-2.312-1.695-2.566-.281-.344 1.925.691 2.84 2.113 1.867Zm-2.09-11.937c-.82-1.086-1.953-4.457-1.718-5.117.492-1.387 1.691-.555 2.75 1.91.804 1.875.964 2.715.601 3.184-.61.797-1.043.805-1.633.023Zm-9.859 10.879c-1.207-2.574-1.164-3.41.184-3.41.921 0 3.074 4.465 2.574 5.336-.653 1.14-1.645.45-2.758-1.926Zm28.949-.102c-1.394-.257-2.449-.734-2.61-1.18-.48-1.358.223-1.76 2.524-1.429 2.805.403 3.563.719 3.563 1.496 0 1.203-1.09 1.555-3.477 1.114Zm-3.64-10.898c-.536-.406-1.204-1.488-1.485-2.41-.687-2.254.293-4.82 2.266-5.922 1.773-.992 3.387-.637 5.09 1.113 1.73 1.778 1.754 4.825.05 6.66-1.39 1.504-4.308 1.778-5.921.56Zm4.304-2.3c.7-.758.7-2.477 0-3.235-.953-1.027-3.066-.719-3.488.516-.414 1.191-.172 2.359.602 2.93.746.554 2.28.44 2.886-.212Zm6.442 7.476c0-1.102 3.011-3.953 4.183-3.953 1.403 0 .89 1.805-.965 3.387-2.023 1.734-3.218 1.945-3.218.566Zm-1.668-22.414c-1.243-.258-2.145-1.395-1.711-2.149.219-.382 1.156-.48 2.824-.292 2.723.304 3.543.832 3.121 2.015-.266.75-1.906.918-4.234.426Zm10.328 8.844c-1.867-1.817-2.25-4.235-1.012-6.371 1.973-3.399 6.621-3.055 8.035.597 1.293 3.348-.39 6.426-3.789 6.918-1.52.219-2.012.047-3.234-1.144Zm4.394-1.743c.75-.808.684-3.085-.109-3.796-2.063-1.852-5.004 1.25-3.211 3.39.93 1.11 2.492 1.301 3.32.406Zm-1.32-12.378c-2.836-1.696-2.64-6.075.336-7.414 3.695-1.668 6.812 3.14 4.137 6.374-1.29 1.56-2.953 1.946-4.473 1.04Zm3-3.688c0-.894-.273-1.266-1.023-1.379-1.114-.172-1.746.88-1.297 2.149.164.46.683.707 1.297.613.75-.113 1.023-.484 1.023-1.383Zm-5.887-14.32c-2.36-.45-3.043-1.028-2.62-2.215.195-.55.753-.64 2.456-.395 2.961.422 3.555.715 3.555 1.75 0 1.184-.727 1.371-3.39.86Zm-10.191-5.664c-1.688-1.82-1.82-3.918-.36-5.672 1.555-1.863 3.891-1.895 5.575-.074 2.156 2.328.8 6.273-2.383 6.933-1.215.254-1.68.059-2.832-1.187Zm3.574-1.985c.656-1.324-.398-2.746-1.7-2.297-.952.325-1.382 2.13-.683 2.883.594.64 1.942.309 2.383-.586Zm-4.515 11.563c-1.204-2.106-1.57-3.746-.977-4.387.82-.887 1.766-.062 2.586 2.25 1.258 3.57.094 5.117-1.61 2.137Zm-10.161 6.043c-.441-.77.172-1.711 2.047-3.149 3.176-2.433 4.434-.527 1.375 2.086-1.777 1.52-2.949 1.887-3.422 1.063Zm-9.191-11.649c-1.566-.328-3.3-2.89-3.3-4.875 0-2.402 2.038-4.578 4.288-4.578 2.211 0 3.762 1.207 4.371 3.403.664 2.402-.37 4.71-2.554 5.695-.848.383-1.602.668-1.672.629-.07-.035-.578-.16-1.133-.274Zm2.5-3.183c.7-.758.7-2.477 0-3.235-.7-.754-2.293-.754-2.992 0-1.27 1.375-.313 3.82 1.496 3.82.523 0 1.2-.261 1.496-.585Zm1.871-10.149c-2.516-2.718-1.168-7.785 2.293-8.605 1.91-.457 4.309.922 5.219 2.996 2.203 5.012-3.871 9.543-7.512 5.61Zm5.395-3.183c.191-1.715-.625-2.73-2.188-2.73-1.57 0-2.371 1.015-2.184 2.773.32 3.004 4.04 2.968 4.372-.043ZM53.04 20.977c-1.044-2.407-.977-3.477.222-3.477.75 0 3.093 4.703 2.691 5.402-.68 1.192-1.918.371-2.914-1.925Zm0 0"/></svg>