<?xml version="1.0" encoding="UTF-8"?>
<svg xmlns="http://www.w3.org/2000/svg" xmlns:xlink="http://www.w3.org/1999/xlink" width="107px" height="107px" viewBox="0 0 107 107" version="1.1">
<g id="surface1">
<path style=" stroke:none;fill-rule:nonzero;fill:rgb(0%,0%,0%);fill-opacity:1;" d="M 106.058594 40.746094 C 105.78125 40.296875 105.503906 39.847656 105.085938 39.699219 C 105.503906 39.097656 105.78125 38.199219 105.640625 37.449219 C 105.503906 34.152344 104.117188 27.410156 97.316406 19.019531 C 90.382812 10.625 84.277344 8.378906 81.363281 7.777344 C 80.808594 7.628906 80.390625 7.777344 79.976562 7.777344 C 79.835938 7.027344 79.421875 6.28125 78.867188 5.832031 C 76.507812 3.730469 70.957031 0.433594 60.554688 0.433594 C 50.148438 0.433594 44.597656 3.882812 42.101562 5.832031 C 40.851562 6.878906 40.4375 8.527344 41.128906 10.027344 L 43.347656 15.570312 L 57.222656 51.835938 C 57.222656 51.988281 57.363281 52.136719 57.5 52.285156 C 57.222656 52.136719 56.808594 52.136719 56.390625 52.136719 L 19.902344 55.582031 L 14.355469 56.03125 C 12.828125 56.183594 11.578125 57.382812 11.300781 59.03125 C 10.746094 62.328125 10.609375 69.222656 15.601562 78.960938 C 20.457031 88.851562 26.007812 92.449219 28.78125 93.796875 C 29.199219 93.949219 29.613281 94.097656 30.167969 94.097656 C 30.167969 94.097656 30.167969 94.097656 30.308594 94.097656 C 30.308594 94.847656 30.585938 95.597656 31.003906 96.34375 C 32.945312 98.894531 37.523438 103.6875 47.652344 106.234375 C 51.257812 107.136719 54.308594 107.433594 56.945312 107.433594 C 61.664062 107.433594 64.855469 106.386719 66.65625 105.488281 C 67.074219 105.335938 67.488281 104.886719 67.765625 104.585938 C 68.320312 105.039062 69.015625 105.488281 69.710938 105.488281 C 69.988281 105.488281 70.265625 105.488281 70.542969 105.488281 C 73.871094 105.488281 79.835938 104.4375 87.46875 98.59375 C 95.929688 92.148438 98.707031 85.855469 99.675781 82.707031 C 99.816406 82.257812 99.816406 81.660156 99.816406 81.210938 C 100.507812 81.058594 101.203125 80.761719 101.757812 80.160156 C 103.976562 77.761719 107.722656 72.21875 108.832031 61.128906 C 110.222656 50.039062 107.722656 43.59375 106.058594 40.746094 Z M 80.113281 11.074219 C 80.253906 10.777344 80.53125 10.625 80.667969 10.777344 C 83.304688 11.375 88.855469 13.324219 95.097656 20.964844 C 101.339844 28.609375 102.589844 34.601562 102.730469 37.601562 C 102.730469 37.898438 102.589844 38.050781 102.3125 38.199219 L 100.09375 39.097656 C 99.816406 36.101562 98.429688 30.40625 92.738281 23.363281 C 87.050781 16.320312 81.78125 14.222656 79.003906 13.621094 Z M 100.230469 60.078125 C 99.261719 69.222656 96.070312 73.566406 94.683594 75.066406 C 94.542969 75.214844 94.40625 75.214844 94.265625 75.066406 L 78.035156 64.875 L 63.742188 55.132812 L 79.976562 49.289062 L 97.597656 43.894531 C 97.734375 43.894531 97.875 43.894531 98.011719 44.042969 C 99.121094 45.84375 101.203125 50.9375 100.230469 60.078125 Z M 78.171875 16.46875 C 79.976562 16.769531 84.96875 18.417969 90.796875 25.460938 C 96.484375 32.355469 97.316406 37.898438 97.457031 39.847656 C 97.457031 40 97.316406 40.148438 97.179688 40.148438 L 79.28125 46.441406 L 63.050781 51.386719 L 69.847656 34.453125 L 77.894531 16.621094 C 77.894531 16.46875 78.035156 16.46875 78.171875 16.46875 Z M 43.488281 8.976562 C 43.347656 8.675781 43.488281 8.378906 43.628906 8.226562 C 45.847656 6.429688 50.839844 3.433594 60.277344 3.433594 C 69.710938 3.433594 74.703125 6.429688 76.785156 8.226562 C 76.925781 8.378906 77.0625 8.675781 76.925781 8.976562 L 75.953125 11.375 C 73.59375 9.578125 68.878906 6.878906 60.277344 6.878906 C 51.671875 6.878906 46.679688 9.578125 44.460938 11.375 Z M 45.707031 14.523438 C 45.707031 14.371094 45.707031 14.222656 45.847656 14.074219 C 47.371094 12.875 51.8125 9.875 60.414062 9.875 C 68.738281 9.875 73.039062 12.425781 74.84375 14.074219 C 74.980469 14.222656 74.980469 14.371094 74.980469 14.523438 L 67.488281 33.253906 L 59.71875 50.636719 Z M 59.996094 54.085938 C 59.996094 54.234375 59.996094 54.234375 59.996094 54.382812 C 59.996094 54.382812 59.859375 54.382812 59.71875 54.535156 C 59.582031 54.535156 59.582031 54.535156 59.441406 54.382812 C 59.441406 54.234375 59.441406 54.085938 59.304688 53.933594 L 59.164062 53.785156 C 59.304688 53.785156 59.582031 53.933594 59.71875 53.933594 C 59.859375 54.085938 59.859375 54.085938 59.996094 54.085938 Z M 58.332031 58.582031 L 61.800781 76.714844 L 64.714844 96.195312 C 64.714844 96.34375 64.714844 96.496094 64.578125 96.644531 C 62.910156 97.542969 57.917969 99.191406 49.59375 97.09375 C 41.269531 94.996094 37.660156 91.101562 36.414062 89.453125 C 36.273438 89.300781 36.273438 89.152344 36.414062 89.003906 L 47.652344 72.667969 Z M 30.585938 90.949219 C 30.445312 91.101562 30.167969 91.25 29.890625 91.101562 C 27.949219 90.203125 22.679688 86.90625 17.960938 77.464844 C 13.519531 68.472656 13.519531 62.328125 14.074219 59.480469 C 14.074219 59.179688 14.355469 59.03125 14.632812 59.03125 L 17.128906 58.878906 C 16.710938 61.878906 16.851562 67.871094 20.875 75.964844 C 25.035156 84.207031 29.476562 87.503906 32.113281 88.851562 Z M 23.234375 74.617188 C 19.210938 66.523438 19.488281 60.980469 19.765625 58.878906 C 19.765625 58.730469 19.902344 58.582031 20.042969 58.582031 L 56.390625 55.285156 C 56.253906 55.433594 56.113281 55.433594 56.113281 55.582031 L 45.570312 70.871094 L 34.054688 86.304688 C 33.914062 86.453125 33.777344 86.453125 33.636719 86.453125 C 31.835938 85.554688 27.394531 82.707031 23.234375 74.617188 Z M 65.410156 102.789062 C 63.464844 103.839844 57.777344 105.785156 48.066406 103.390625 C 38.769531 100.992188 34.609375 96.796875 32.945312 94.546875 C 32.804688 94.398438 32.804688 94.097656 32.945312 93.796875 L 34.46875 91.699219 C 36.273438 94.097656 40.4375 97.84375 48.761719 99.941406 C 51.953125 100.691406 54.585938 100.992188 56.945312 100.992188 C 60.832031 100.992188 63.464844 100.09375 65.132812 99.34375 L 65.546875 102.039062 C 65.824219 102.488281 65.6875 102.789062 65.410156 102.789062 Z M 68.320312 96.046875 L 64.578125 76.113281 L 61.800781 58.132812 L 76.644531 67.421875 L 92.046875 78.0625 C 92.183594 78.210938 92.183594 78.363281 92.183594 78.511719 C 91.628906 80.460938 89.550781 85.554688 82.472656 90.949219 C 75.398438 96.195312 70.402344 96.644531 68.460938 96.496094 C 68.460938 96.34375 68.320312 96.34375 68.320312 96.046875 Z M 85.941406 96.195312 C 78.171875 102.039062 72.484375 102.640625 69.847656 102.488281 C 69.570312 102.488281 69.433594 102.339844 69.292969 102.039062 L 68.878906 99.34375 C 69.015625 99.34375 69.015625 99.34375 69.15625 99.34375 C 72.066406 99.34375 77.339844 98.445312 84.136719 93.347656 C 91.214844 87.953125 93.851562 82.707031 94.683594 79.859375 L 96.761719 81.210938 C 97.039062 81.359375 97.039062 81.660156 97.039062 81.957031 C 96.484375 84.207031 94.128906 90.050781 85.941406 96.195312 Z M 106.199219 60.828125 C 105.085938 71.019531 101.757812 75.964844 99.816406 78.0625 C 99.675781 78.210938 99.398438 78.363281 99.121094 78.210938 L 97.039062 76.863281 C 98.984375 74.617188 102.035156 69.671875 103.007812 60.527344 C 103.976562 51.238281 102.035156 45.691406 100.648438 42.996094 L 103.007812 42.246094 C 103.285156 42.097656 103.5625 42.246094 103.699219 42.546875 C 105.085938 44.945312 107.308594 50.636719 106.199219 60.828125 Z M 106.199219 60.828125 "/>
<path style=" stroke:none;fill-rule:nonzero;fill:rgb(0%,0%,0%);fill-opacity:1;" d="M 66.242188 13.023438 C 63.464844 13.023438 61.246094 15.421875 61.246094 18.417969 C 61.246094 21.414062 63.464844 23.8125 66.242188 23.8125 C 69.015625 23.8125 71.234375 21.414062 71.234375 18.417969 C 71.234375 15.421875 69.015625 13.023438 66.242188 13.023438 Z M 66.242188 20.964844 C 64.992188 20.964844 64.019531 19.917969 64.019531 18.566406 C 64.019531 17.21875 64.992188 16.171875 66.242188 16.171875 C 67.488281 16.171875 68.460938 17.21875 68.460938 18.566406 C 68.460938 19.917969 67.488281 20.964844 66.242188 20.964844 Z M 66.242188 20.964844 "/>
<path style=" stroke:none;fill-rule:nonzero;fill:rgb(0%,0%,0%);fill-opacity:1;" d="M 59.71875 25.460938 C 57.085938 25.460938 55.003906 27.710938 55.003906 30.558594 C 55.003906 33.40625 57.085938 35.652344 59.71875 35.652344 C 62.355469 35.652344 64.4375 33.40625 64.4375 30.558594 C 64.4375 27.710938 62.355469 25.460938 59.71875 25.460938 Z M 59.582031 32.65625 C 58.472656 32.65625 57.640625 31.757812 57.640625 30.558594 C 57.640625 29.359375 58.472656 28.457031 59.582031 28.457031 C 60.691406 28.457031 61.523438 29.359375 61.523438 30.558594 C 61.523438 31.757812 60.691406 32.65625 59.582031 32.65625 Z M 59.582031 32.65625 "/>
<path style=" stroke:none;fill-rule:nonzero;fill:rgb(0%,0%,0%);fill-opacity:1;" d="M 84.414062 25.3125 C 82.890625 23.511719 80.253906 23.363281 78.589844 25.011719 C 77.757812 25.761719 77.339844 26.960938 77.203125 28.007812 C 77.203125 29.207031 77.480469 30.40625 78.171875 31.15625 C 78.867188 32.207031 79.976562 32.804688 81.085938 32.804688 C 81.226562 32.804688 81.226562 32.804688 81.363281 32.804688 C 82.335938 32.804688 83.304688 32.355469 84.136719 31.605469 C 85.804688 29.957031 85.941406 27.109375 84.414062 25.3125 Z M 82.058594 29.65625 C 81.78125 29.957031 81.503906 30.105469 81.085938 29.957031 C 80.667969 29.957031 80.390625 29.808594 80.113281 29.507812 C 79.835938 29.207031 79.699219 28.910156 79.835938 28.457031 C 79.976562 28.007812 80.113281 27.558594 80.390625 27.410156 C 80.667969 27.109375 80.949219 27.109375 81.226562 27.109375 C 81.640625 27.109375 81.917969 27.261719 82.195312 27.558594 C 82.75 28.160156 82.613281 29.058594 82.058594 29.65625 Z M 82.058594 29.65625 "/>
<path style=" stroke:none;fill-rule:nonzero;fill:rgb(0%,0%,0%);fill-opacity:1;" d="M 95.652344 62.027344 C 94.683594 60.980469 93.574219 60.230469 92.324219 60.078125 C 89.6875 59.78125 87.191406 61.878906 86.914062 64.726562 C 86.636719 67.574219 88.578125 70.269531 91.214844 70.570312 C 91.351562 70.570312 91.628906 70.570312 91.769531 70.570312 C 94.265625 70.570312 96.347656 68.621094 96.625 65.925781 C 96.761719 64.574219 96.347656 63.078125 95.652344 62.027344 Z M 91.492188 67.722656 C 90.242188 67.574219 89.410156 66.375 89.550781 65.175781 C 89.6875 63.824219 90.796875 62.925781 91.90625 63.078125 C 92.460938 63.078125 93.015625 63.527344 93.292969 63.976562 C 93.574219 64.425781 93.851562 65.023438 93.851562 65.625 C 93.710938 66.972656 92.601562 67.871094 91.492188 67.722656 Z M 91.492188 67.722656 "/>
<path style=" stroke:none;fill-rule:nonzero;fill:rgb(0%,0%,0%);fill-opacity:1;" d="M 96.902344 48.539062 C 96.347656 47.640625 95.375 47.042969 94.265625 46.890625 C 93.15625 46.742188 92.046875 47.042969 91.214844 47.789062 C 90.382812 48.539062 89.828125 49.589844 89.6875 50.789062 C 89.550781 51.988281 89.828125 53.1875 90.519531 54.085938 C 91.214844 54.984375 92.183594 55.582031 93.292969 55.734375 C 93.433594 55.734375 93.574219 55.734375 93.710938 55.734375 C 94.683594 55.734375 95.515625 55.433594 96.207031 54.835938 C 97.039062 54.085938 97.597656 53.035156 97.734375 51.835938 C 97.875 50.636719 97.597656 49.4375 96.902344 48.539062 Z M 94.542969 52.4375 C 94.265625 52.734375 93.851562 52.734375 93.574219 52.734375 C 93.15625 52.734375 92.878906 52.4375 92.738281 52.136719 C 92.460938 51.835938 92.460938 51.386719 92.460938 51.085938 C 92.460938 50.636719 92.738281 50.339844 93.015625 50.1875 C 93.292969 49.890625 93.710938 49.890625 93.988281 49.890625 C 94.40625 49.890625 94.683594 50.1875 94.820312 50.488281 C 94.960938 50.789062 95.097656 51.238281 95.097656 51.539062 C 95.097656 51.835938 94.820312 52.285156 94.542969 52.4375 Z M 94.542969 52.4375 "/>
<path style=" stroke:none;fill-rule:nonzero;fill:rgb(0%,0%,0%);fill-opacity:1;" d="M 76.089844 70.570312 C 75.257812 69.371094 74.289062 68.621094 73.039062 68.472656 C 71.789062 68.171875 70.542969 68.472656 69.433594 69.371094 C 67.351562 71.019531 66.796875 74.167969 68.320312 76.5625 C 69.15625 77.914062 70.679688 78.660156 72.207031 78.660156 C 73.179688 78.660156 74.148438 78.363281 74.980469 77.761719 C 76.089844 77.011719 76.785156 75.816406 76.925781 74.464844 C 77.203125 73.117188 76.925781 71.769531 76.089844 70.570312 Z M 74.148438 74.015625 C 74.011719 74.617188 73.734375 75.066406 73.316406 75.363281 C 72.484375 76.113281 71.234375 75.816406 70.542969 74.765625 C 69.988281 73.867188 70.125 72.519531 71.097656 71.769531 C 71.929688 71.167969 73.179688 71.320312 73.871094 72.367188 C 74.148438 72.816406 74.289062 73.417969 74.148438 74.015625 Z M 74.148438 74.015625 "/>
<path style=" stroke:none;fill-rule:nonzero;fill:rgb(0%,0%,0%);fill-opacity:1;" d="M 56.390625 83.757812 C 55.28125 83.457031 54.171875 83.605469 53.339844 84.355469 C 52.367188 84.957031 51.8125 86.003906 51.535156 87.054688 C 50.839844 89.453125 52.230469 91.851562 54.449219 92.449219 C 54.726562 92.597656 55.140625 92.597656 55.417969 92.597656 C 57.222656 92.597656 59.027344 91.25 59.441406 89.152344 C 59.996094 86.753906 58.609375 84.355469 56.390625 83.757812 Z M 56.53125 88.554688 C 56.390625 89.300781 55.695312 89.75 54.863281 89.601562 C 54.449219 89.453125 54.171875 89.300781 54.03125 89.003906 C 53.894531 88.703125 54.03125 88.253906 54.03125 87.804688 C 54.171875 87.355469 54.308594 87.054688 54.585938 86.90625 C 54.863281 86.753906 55.003906 86.753906 55.28125 86.753906 C 55.417969 86.753906 55.558594 86.753906 55.558594 86.753906 C 56.253906 86.90625 56.667969 87.652344 56.53125 88.554688 Z M 56.53125 88.554688 "/>
<path style=" stroke:none;fill-rule:nonzero;fill:rgb(0%,0%,0%);fill-opacity:1;" d="M 31.835938 62.328125 C 30.585938 59.78125 27.535156 58.730469 25.175781 60.230469 C 22.816406 61.578125 21.84375 64.875 23.234375 67.421875 C 24.066406 69.222656 25.867188 70.269531 27.535156 70.269531 C 28.367188 70.269531 29.058594 70.121094 29.890625 69.671875 C 32.25 68.171875 33.082031 64.875 31.835938 62.328125 Z M 28.503906 66.972656 C 27.394531 67.574219 26.144531 67.121094 25.589844 66.074219 C 25.035156 64.875 25.453125 63.527344 26.421875 62.925781 C 27.535156 62.328125 28.78125 62.777344 29.335938 63.824219 C 29.890625 64.875 29.476562 66.375 28.503906 66.972656 Z M 28.503906 66.972656 "/>
<path style=" stroke:none;fill-rule:nonzero;fill:rgb(0%,0%,0%);fill-opacity:1;" d="M 44.597656 62.925781 C 44.042969 61.726562 42.933594 60.828125 41.824219 60.378906 C 40.574219 59.929688 39.328125 60.078125 38.214844 60.828125 C 37.105469 61.429688 36.273438 62.628906 35.859375 63.824219 C 35.441406 65.175781 35.582031 66.523438 36.273438 67.722656 C 36.828125 69.070312 37.800781 69.96875 39.046875 70.269531 C 39.464844 70.417969 40.019531 70.417969 40.4375 70.417969 C 41.269531 70.417969 41.960938 70.269531 42.65625 69.820312 C 43.765625 69.222656 44.597656 68.023438 45.015625 66.824219 C 45.429688 65.472656 45.292969 64.125 44.597656 62.925781 Z M 41.269531 67.273438 C 40.851562 67.574219 40.296875 67.574219 39.742188 67.421875 C 39.1875 67.273438 38.769531 66.824219 38.632812 66.375 C 38.492188 65.925781 38.355469 65.324219 38.492188 64.726562 C 38.632812 64.125 39.046875 63.675781 39.464844 63.527344 C 39.882812 63.226562 40.4375 63.226562 40.992188 63.375 C 41.546875 63.527344 41.960938 63.976562 42.101562 64.425781 C 42.65625 65.472656 42.238281 66.824219 41.269531 67.273438 Z M 41.269531 67.273438 "/>
<path style=" stroke:none;fill-rule:nonzero;fill:rgb(0%,0%,0%);fill-opacity:1;" d="M 49.730469 41.945312 L 27.394531 10.777344 L 23.925781 5.980469 C 22.957031 4.632812 21.429688 4.179688 20.042969 4.929688 C 17.265625 6.28125 11.855469 9.875 6.863281 19.617188 C 1.867188 29.359375 2.007812 36.402344 2.421875 39.699219 C 2.699219 41.347656 3.808594 42.546875 5.335938 42.695312 L 10.886719 43.144531 L 46.957031 47.339844 C 47.234375 47.339844 47.371094 47.339844 47.371094 47.339844 C 48.484375 47.339844 49.453125 46.742188 50.007812 45.691406 C 50.5625 44.492188 50.5625 43.144531 49.730469 41.945312 Z M 8.109375 40 L 5.75 39.699219 C 5.472656 39.699219 5.335938 39.398438 5.195312 39.25 C 4.78125 36.402344 4.78125 30.105469 9.21875 21.117188 C 13.796875 12.125 18.65625 8.828125 21.011719 7.777344 C 21.289062 7.628906 21.566406 7.777344 21.707031 7.929688 L 23.234375 10.027344 C 20.597656 11.375 16.15625 14.671875 11.996094 22.765625 C 7.832031 31.007812 7.695312 36.851562 8.109375 40 Z M 47.789062 44.195312 C 47.652344 44.34375 47.652344 44.34375 47.511719 44.34375 L 11.441406 40.148438 C 11.164062 40.148438 11.023438 40 11.023438 39.847656 C 10.746094 37.75 10.46875 32.207031 14.632812 24.113281 C 18.792969 16.019531 23.234375 13.324219 24.898438 12.425781 C 25.035156 12.425781 25.175781 12.425781 25.3125 12.574219 L 47.789062 43.746094 C 47.929688 43.894531 47.929688 44.042969 47.789062 44.195312 Z M 47.789062 44.195312 "/>
<path style=" stroke:none;fill-rule:nonzero;fill:rgb(0%,0%,0%);fill-opacity:1;" d="M 29.058594 21.117188 C 28.644531 19.765625 27.8125 18.566406 26.699219 17.96875 C 25.589844 17.21875 24.203125 17.070312 22.957031 17.519531 C 21.707031 17.96875 20.597656 18.867188 20.042969 20.066406 C 19.347656 21.265625 19.210938 22.765625 19.625 24.113281 C 20.042969 25.460938 20.875 26.660156 21.984375 27.410156 C 22.679688 27.859375 23.511719 28.007812 24.34375 28.007812 C 26.144531 28.007812 27.8125 26.960938 28.644531 25.160156 C 29.335938 23.964844 29.476562 22.464844 29.058594 21.117188 Z M 26.144531 23.8125 C 25.589844 25.011719 24.203125 25.3125 23.234375 24.710938 C 22.679688 24.414062 22.398438 23.964844 22.261719 23.363281 C 22.121094 22.765625 22.261719 22.164062 22.539062 21.566406 C 22.816406 20.964844 23.234375 20.667969 23.789062 20.515625 C 23.925781 20.515625 24.203125 20.367188 24.34375 20.367188 C 24.757812 20.367188 25.035156 20.515625 25.3125 20.667969 C 25.867188 20.964844 26.144531 21.414062 26.285156 22.015625 C 26.421875 22.613281 26.421875 23.214844 26.144531 23.8125 Z M 26.144531 23.8125 "/>
<path style=" stroke:none;fill-rule:nonzero;fill:rgb(0%,0%,0%);fill-opacity:1;" d="M 31.28125 31.757812 C 29.335938 30.257812 26.839844 31.007812 25.730469 33.253906 C 25.175781 34.304688 25.035156 35.503906 25.453125 36.703125 C 25.730469 37.898438 26.421875 38.800781 27.394531 39.398438 C 27.949219 39.699219 28.644531 40 29.335938 40 C 29.753906 40 30.167969 40 30.445312 39.847656 C 31.558594 39.546875 32.390625 38.800781 32.945312 37.75 C 34.054688 35.652344 33.359375 32.953125 31.28125 31.757812 Z M 30.585938 35.953125 C 30.167969 36.703125 29.476562 36.851562 28.78125 36.550781 C 28.503906 36.402344 28.226562 36.101562 28.089844 35.652344 C 27.949219 35.203125 28.089844 34.902344 28.226562 34.601562 C 28.367188 34.304688 28.644531 34.003906 29.058594 33.855469 C 29.058594 34.003906 29.199219 33.855469 29.335938 33.855469 C 29.613281 33.855469 29.753906 33.855469 30.03125 34.003906 C 30.722656 34.453125 30.863281 35.203125 30.585938 35.953125 Z M 30.585938 35.953125 "/>
<path style=" stroke:none;fill-rule:nonzero;fill:rgb(0%,0%,0%);fill-opacity:1;" d="M 19.488281 33.855469 L 17.820312 30.105469 C 17.542969 29.359375 16.710938 29.058594 16.019531 29.359375 C 15.324219 29.65625 15.046875 30.558594 15.324219 31.304688 L 16.988281 35.054688 C 17.265625 35.652344 17.683594 35.953125 18.238281 35.953125 C 18.375 35.953125 18.65625 35.953125 18.792969 35.800781 C 19.488281 35.503906 19.765625 34.601562 19.488281 33.855469 Z M 19.488281 33.855469 "/>
<path style=" stroke:none;fill-rule:nonzero;fill:rgb(0%,0%,0%);fill-opacity:1;" d="M 56.113281 21.714844 L 54.449219 17.96875 C 54.171875 17.21875 53.339844 16.917969 52.644531 17.21875 C 51.953125 17.519531 51.671875 18.417969 51.953125 19.167969 L 53.617188 22.914062 C 53.894531 23.511719 54.308594 23.8125 54.863281 23.8125 C 55.003906 23.8125 55.28125 23.8125 55.417969 23.664062 C 56.113281 23.363281 56.53125 22.464844 56.113281 21.714844 Z M 56.113281 21.714844 "/>
<path style=" stroke:none;fill-rule:nonzero;fill:rgb(0%,0%,0%);fill-opacity:1;" d="M 80.53125 40.449219 L 78.867188 36.703125 C 78.589844 35.953125 77.757812 35.652344 77.0625 35.953125 C 76.367188 36.25 76.089844 37.152344 76.367188 37.898438 L 78.035156 41.648438 C 78.3125 42.246094 78.726562 42.546875 79.28125 42.546875 C 79.421875 42.546875 79.699219 42.546875 79.835938 42.394531 C 80.53125 42.097656 80.808594 41.195312 80.53125 40.449219 Z M 80.53125 40.449219 "/>
<path style=" stroke:none;fill-rule:nonzero;fill:rgb(0%,0%,0%);fill-opacity:1;" d="M 47.234375 89.300781 L 45.570312 85.554688 C 45.292969 84.804688 44.460938 84.507812 43.765625 84.804688 C 43.070312 85.105469 42.792969 86.003906 43.070312 86.753906 L 44.738281 90.5 C 45.015625 91.101562 45.429688 91.398438 45.984375 91.398438 C 46.125 91.398438 46.402344 91.398438 46.539062 91.25 C 47.234375 90.949219 47.511719 90.050781 47.234375 89.300781 Z M 47.234375 89.300781 "/>
<path style=" stroke:none;fill-rule:nonzero;fill:rgb(0%,0%,0%);fill-opacity:1;" d="M 75.675781 86.003906 L 71.789062 85.257812 C 71.097656 85.105469 70.265625 85.707031 70.125 86.453125 C 69.988281 87.203125 70.542969 88.101562 71.234375 88.253906 L 75.121094 89.003906 C 75.257812 89.003906 75.257812 89.003906 75.398438 89.003906 C 76.089844 89.003906 76.644531 88.554688 76.785156 87.804688 C 77.0625 86.90625 76.507812 86.15625 75.675781 86.003906 Z M 75.675781 86.003906 "/>
<path style=" stroke:none;fill-rule:nonzero;fill:rgb(0%,0%,0%);fill-opacity:1;" d="M 82.058594 57.980469 L 78.171875 57.230469 C 77.480469 57.082031 76.644531 57.679688 76.507812 58.429688 C 76.367188 59.179688 76.925781 60.078125 77.617188 60.230469 L 81.503906 60.980469 C 81.640625 60.980469 81.640625 60.980469 81.78125 60.980469 C 82.472656 60.980469 83.027344 60.527344 83.167969 59.78125 C 83.304688 59.03125 82.75 58.132812 82.058594 57.980469 Z M 82.058594 57.980469 "/>
<path style=" stroke:none;fill-rule:nonzero;fill:rgb(0%,0%,0%);fill-opacity:1;" d="M 91.628906 34.601562 L 87.746094 33.855469 C 87.050781 33.703125 86.21875 34.304688 86.082031 35.054688 C 85.941406 35.953125 86.496094 36.703125 87.191406 36.851562 L 91.074219 37.601562 C 91.214844 37.601562 91.214844 37.601562 91.351562 37.601562 C 92.046875 37.601562 92.601562 37.152344 92.738281 36.402344 C 92.878906 35.652344 92.324219 34.753906 91.628906 34.601562 Z M 91.628906 34.601562 "/>
<path style=" stroke:none;fill-rule:nonzero;fill:rgb(0%,0%,0%);fill-opacity:1;" d="M 56.113281 76.265625 L 54.449219 72.519531 C 54.171875 71.769531 53.339844 71.46875 52.644531 71.769531 C 51.953125 72.066406 51.671875 72.96875 51.953125 73.714844 L 53.617188 77.464844 C 53.894531 78.0625 54.308594 78.363281 54.863281 78.363281 C 55.003906 78.363281 55.28125 78.363281 55.417969 78.210938 C 56.113281 77.914062 56.390625 77.011719 56.113281 76.265625 Z M 56.113281 76.265625 "/>
<path style=" stroke:none;fill-rule:nonzero;fill:rgb(0%,0%,0%);fill-opacity:1;" d="M 34.609375 74.316406 C 34.191406 73.714844 33.222656 73.566406 32.667969 74.167969 L 29.613281 76.863281 C 29.058594 77.3125 28.921875 78.363281 29.476562 78.960938 C 29.753906 79.261719 30.167969 79.5625 30.585938 79.5625 C 30.863281 79.5625 31.140625 79.410156 31.417969 79.261719 L 34.46875 76.5625 C 35.023438 75.964844 35.164062 75.066406 34.609375 74.316406 Z M 34.609375 74.316406 "/>
<path style=" stroke:none;fill-rule:nonzero;fill:rgb(0%,0%,0%);fill-opacity:1;" d="M 72.902344 42.695312 C 72.484375 42.097656 71.511719 41.945312 70.957031 42.546875 L 67.90625 45.09375 C 67.351562 45.691406 67.210938 46.59375 67.765625 47.191406 C 68.042969 47.492188 68.460938 47.789062 68.878906 47.789062 C 69.15625 47.789062 69.433594 47.640625 69.710938 47.492188 L 72.761719 44.792969 C 73.316406 44.34375 73.457031 43.296875 72.902344 42.695312 Z M 72.902344 42.695312 "/>
<path style=" stroke:none;fill-rule:nonzero;fill:rgb(0%,0%,0%);fill-opacity:1;" d="M 85.25 78.8125 C 84.832031 78.210938 83.859375 78.0625 83.304688 78.660156 L 80.253906 81.359375 C 79.699219 81.808594 79.558594 82.859375 80.113281 83.457031 C 80.390625 83.757812 80.808594 83.90625 81.226562 83.90625 C 81.503906 83.90625 81.78125 83.757812 82.058594 83.605469 L 85.109375 80.910156 C 85.664062 80.460938 85.804688 79.410156 85.25 78.8125 Z M 85.25 78.8125 "/>
<path style=" stroke:none;fill-rule:nonzero;fill:rgb(23.921569%,91.372549%,15.686275%);fill-opacity:1;" d="M 51.203125 106.785156 C 48.082031 106.222656 42.660156 104.492188 40.167969 103.261719 C 36.507812 101.449219 31.925781 97.667969 31.175781 95.839844 C 30.765625 94.839844 29.796875 93.976562 28.082031 93.078125 C 26.535156 92.269531 24.292969 90.359375 22.1875 88.058594 C 16.152344 81.472656 11.871094 71.808594 11.429688 63.792969 C 11.1875 59.367188 11.691406 57.378906 13.222656 56.699219 C 13.789062 56.449219 23.921875 55.355469 35.738281 54.269531 C 47.554688 53.183594 57.292969 52.222656 57.375 52.132812 C 57.457031 52.042969 53.859375 42.398438 49.378906 30.703125 C 44.894531 19.003906 41.230469 8.839844 41.230469 8.113281 C 41.230469 5.898438 45.773438 3.164062 51.972656 1.644531 C 56.089844 0.640625 64.804688 0.605469 69.113281 1.585938 C 73.089844 2.484375 78.75 5.4375 79.382812 6.9375 C 79.714844 7.726562 80.257812 8.058594 81.261719 8.089844 C 83.34375 8.15625 89.550781 11.675781 92.832031 14.652344 C 96.695312 18.164062 100.761719 23.769531 102.886719 28.519531 C 104.628906 32.40625 105.816406 37.410156 105.324219 38.792969 C 105.183594 39.1875 105.476562 40.234375 105.972656 41.117188 C 110.285156 48.757812 109.75 64.828125 104.847656 74.902344 C 103.957031 76.734375 102.488281 78.933594 101.585938 79.789062 C 100.683594 80.644531 99.617188 82.261719 99.21875 83.382812 C 96.554688 90.898438 87.734375 99.507812 78.710938 103.398438 C 75.3125 104.863281 69.984375 105.597656 68.640625 104.789062 C 68.023438 104.417969 67.523438 104.480469 66.742188 105.035156 C 64.378906 106.707031 56.019531 107.648438 51.203125 106.785156 Z M 64.011719 103.652344 C 65.394531 103.152344 65.710938 102.800781 65.707031 101.773438 C 65.691406 99.410156 65.242188 99.175781 62.292969 100.003906 C 54.511719 102.195312 42.132812 98.996094 36.429688 93.320312 L 34.433594 91.332031 L 33.539062 92.492188 C 32.328125 94.066406 32.382812 94.441406 34.089844 96.21875 C 37.421875 99.691406 44.125 102.941406 50.476562 104.167969 C 53.503906 104.753906 61.847656 104.4375 64.011719 103.652344 Z M 75.394531 101.9375 C 83.351562 99.71875 93.339844 91.347656 96.390625 84.347656 L 97.457031 81.898438 L 96.292969 80.796875 C 95.65625 80.191406 94.992188 79.703125 94.816406 79.714844 C 94.644531 79.726562 94.046875 80.785156 93.488281 82.070312 C 90.390625 89.222656 79.988281 97.296875 71.925781 98.8125 C 69.046875 99.355469 68.886719 99.457031 68.886719 100.722656 C 68.886719 101.457031 69.023438 102.207031 69.1875 102.386719 C 69.707031 102.949219 72.492188 102.746094 75.394531 101.9375 Z M 62.09375 97.769531 C 63.371094 97.472656 64.519531 96.9375 64.644531 96.578125 C 65.214844 94.980469 59.160156 59.460938 58.253906 59.066406 C 57.402344 58.699219 36.242188 87.84375 36.242188 89.378906 C 36.242188 90.234375 39.332031 92.859375 42.132812 94.386719 C 44.542969 95.699219 49.554688 97.421875 52.5625 97.964844 C 54.898438 98.390625 59.851562 98.289062 62.09375 97.769531 Z M 72.152344 96.300781 C 77.585938 95.082031 85.300781 89.851562 88.898438 84.941406 C 90.769531 82.382812 92.808594 78.417969 92.433594 78.054688 C 92.324219 77.949219 88.5625 75.335938 84.074219 72.25 C 74.601562 65.742188 62.148438 57.917969 61.820312 58.269531 C 61.390625 58.734375 67.554688 95.1875 68.277344 96.46875 C 68.558594 96.964844 69.320312 96.933594 72.152344 96.300781 Z M 31.429688 90.242188 C 31.832031 89.578125 32.160156 88.953125 32.160156 88.855469 C 32.160156 88.757812 31.125 87.949219 29.859375 87.0625 C 23.480469 82.601562 17.230469 69.820312 17.207031 61.207031 C 17.199219 58.6875 17.171875 58.636719 15.855469 58.636719 C 13.9375 58.636719 13.390625 60.015625 13.734375 64.011719 C 14.5625 73.59375 20.769531 85.097656 27.847656 90.160156 C 30.078125 91.753906 30.507812 91.761719 31.429688 90.242188 Z M 40.195312 78.472656 C 43.421875 74.160156 48.441406 67.164062 51.347656 62.921875 L 56.632812 55.207031 L 54.9375 55.246094 C 54.007812 55.265625 45.695312 55.980469 36.46875 56.835938 L 19.691406 58.390625 L 19.554688 60.972656 C 19.160156 68.414062 25.058594 80.710938 31.097656 85.03125 C 32.289062 85.882812 33.503906 86.519531 33.796875 86.445312 C 34.085938 86.367188 36.964844 82.78125 40.195312 78.472656 Z M 103.136719 73.09375 C 105.394531 68.097656 106.125 64.574219 106.382812 57.414062 C 106.621094 50.84375 106.046875 46.734375 104.414062 43.320312 C 103.820312 42.085938 103.574219 41.960938 102.296875 42.253906 C 101.5 42.4375 100.777344 42.660156 100.691406 42.742188 C 100.605469 42.828125 101.011719 44.179688 101.59375 45.746094 C 102.542969 48.308594 102.648438 49.367188 102.640625 56.1875 C 102.636719 63.203125 102.539062 64.078125 101.378906 67.695312 C 100.6875 69.851562 99.417969 72.769531 98.558594 74.179688 C 97.699219 75.589844 96.996094 76.847656 96.996094 76.980469 C 96.996094 77.109375 97.558594 77.535156 98.242188 77.925781 C 99.390625 78.582031 99.574219 78.554688 100.535156 77.585938 C 101.113281 77.007812 102.28125 74.984375 103.136719 73.09375 Z M 96.542969 72.835938 C 97.34375 71.488281 98.527344 68.679688 99.167969 66.59375 C 101.257812 59.816406 100.683594 46.171875 98.21875 44.042969 C 97.3125 43.257812 63.175781 54.339844 63.695312 55.246094 C 64.28125 56.269531 93.53125 75.246094 94.570312 75.273438 C 94.855469 75.28125 95.742188 74.183594 96.542969 72.835938 Z M 60.273438 54.230469 C 60.273438 53.960938 59.953125 53.738281 59.566406 53.738281 C 59.175781 53.738281 58.984375 53.960938 59.136719 54.230469 C 59.292969 54.5 59.609375 54.71875 59.84375 54.71875 C 60.078125 54.71875 60.273438 54.5 60.273438 54.230469 Z M 87.945312 43.648438 L 97.546875 40.308594 L 97.324219 38.171875 C 96.53125 30.597656 86.652344 18.792969 79.160156 16.472656 L 77.867188 16.070312 L 73.589844 25.617188 C 69.492188 34.765625 62.992188 50.5 62.992188 51.273438 C 62.992188 51.769531 76.140625 47.75 87.945312 43.648438 Z M 63.886719 41.847656 C 66.085938 36.921875 69.558594 28.71875 71.597656 23.613281 L 75.304688 14.335938 L 74.023438 13.214844 C 69.675781 9.421875 57.152344 8.617188 49.644531 11.652344 C 44.621094 13.683594 44.367188 11.792969 52.445312 32.558594 C 56.347656 42.589844 59.621094 50.800781 59.714844 50.800781 C 59.808594 50.800781 61.6875 46.773438 63.886719 41.847656 Z M 102.1875 38.390625 C 103.335938 37.484375 102.851562 34.316406 100.894531 29.929688 C 97.308594 21.902344 90.113281 14.261719 83.5 11.460938 C 80.675781 10.269531 79.933594 10.398438 79.359375 12.183594 C 78.726562 14.144531 78.710938 14.070312 79.695312 14.070312 C 81.167969 14.070312 85.800781 16.890625 88.71875 19.558594 C 93.921875 24.320312 98.824219 32.304688 99.558594 37.210938 C 99.855469 39.199219 100.691406 39.574219 102.1875 38.390625 Z M 52.789062 7.953125 C 56.800781 7.042969 63.679688 7.023438 67.582031 7.917969 C 69.234375 8.296875 71.835938 9.289062 73.371094 10.125 L 76.15625 11.644531 L 76.601562 10.375 C 77.363281 8.210938 77.128906 7.808594 74.214844 6.261719 C 67.085938 2.480469 54.453125 2.308594 47.121094 5.890625 C 45.75 6.558594 44.25 7.421875 43.78125 7.808594 C 42.992188 8.460938 42.984375 8.609375 43.648438 9.996094 L 44.359375 11.480469 L 46.988281 10.078125 C 48.433594 9.304688 51.046875 8.347656 52.789062 7.953125 Z M 52.789062 7.953125 "/>
<path style=" stroke:none;fill-rule:nonzero;fill:rgb(23.921569%,91.372549%,15.686275%);fill-opacity:1;" d="M 27.628906 44.90625 C 19.023438 43.878906 10.277344 42.882812 8.1875 42.695312 C 2.792969 42.203125 2.378906 41.601562 2.65625 34.640625 C 2.972656 26.734375 8.074219 15.902344 14.511719 9.464844 C 18.113281 5.863281 20.804688 4.375 22.34375 5.132812 C 23.523438 5.710938 49.546875 41.667969 50.0625 43.433594 C 50.253906 44.074219 50.089844 44.945312 49.644531 45.683594 C 48.992188 46.757812 48.617188 46.878906 46.09375 46.828125 C 44.539062 46.796875 36.230469 45.933594 27.628906 44.90625 Z M 48.027344 44.066406 C 48.027344 43.710938 26.816406 14.023438 25.589844 12.660156 C 24.710938 11.683594 22.488281 13.289062 18.871094 17.511719 C 14.066406 23.113281 10.867188 31.035156 10.859375 37.355469 L 10.851562 40.316406 L 27.742188 42.320312 C 45.652344 44.445312 48.03125 44.652344 48.027344 44.066406 Z M 8.132812 37.65625 C 8.132812 28.566406 15.488281 14.636719 22.308594 10.820312 C 23.542969 10.128906 23.550781 10.097656 22.761719 8.925781 C 21.707031 7.355469 20.714844 7.402344 18.378906 9.136719 C 11.648438 14.140625 5.621094 25.734375 5.074219 34.738281 C 4.789062 39.386719 4.992188 40.027344 6.757812 40.027344 C 8.097656 40.027344 8.132812 39.96875 8.132812 37.65625 Z M 8.132812 37.65625 "/>
<path style=" stroke:none;fill-rule:nonzero;fill:rgb(23.921569%,91.372549%,15.686275%);fill-opacity:1;" d="M 21.601562 26.796875 C 19.867188 25.324219 19.261719 22.898438 20.089844 20.757812 C 21.425781 17.300781 25.003906 16.527344 27.445312 19.164062 C 29.589844 21.480469 29.589844 23.800781 27.445312 26.117188 C 25.617188 28.09375 23.429688 28.347656 21.601562 26.796875 Z M 25.8125 24.355469 C 26.859375 23.222656 26.953125 22.40625 26.152344 21.332031 C 24.699219 19.382812 22.1875 20.367188 22.1875 22.890625 C 22.1875 25.210938 24.25 26.042969 25.8125 24.355469 Z M 25.8125 24.355469 "/>
<path style=" stroke:none;fill-rule:nonzero;fill:rgb(23.921569%,91.372549%,15.686275%);fill-opacity:1;" d="M 17.300781 35.007812 C 16.222656 33.578125 15.378906 30.589844 15.871094 29.949219 C 16.136719 29.597656 16.621094 29.417969 16.9375 29.550781 C 17.738281 29.882812 19.648438 34.414062 19.269531 35.078125 C 18.855469 35.800781 17.875 35.765625 17.300781 35.007812 Z M 17.300781 35.007812 "/>
<path style=" stroke:none;fill-rule:nonzero;fill:rgb(23.921569%,91.372549%,15.686275%);fill-opacity:1;" d="M 26.808594 38.410156 C 26.269531 37.792969 25.699219 36.589844 25.542969 35.738281 C 25.300781 34.445312 25.480469 33.945312 26.632812 32.699219 C 28.332031 30.867188 29.824219 30.800781 31.671875 32.480469 C 34.460938 35.011719 32.988281 39.535156 29.378906 39.535156 C 28.304688 39.535156 27.46875 39.171875 26.808594 38.410156 Z M 30.5 36.023438 C 31.121094 34.960938 30.554688 33.660156 29.472656 33.660156 C 28.132812 33.660156 27.4375 35.34375 28.359375 36.339844 C 29.1875 37.234375 29.851562 37.136719 30.5 36.023438 Z M 30.5 36.023438 "/>
<path style=" stroke:none;fill-rule:nonzero;fill:rgb(23.921569%,91.372549%,15.686275%);fill-opacity:1;" d="M 24.773438 68.914062 C 24.136719 68.371094 23.378906 67.167969 23.097656 66.238281 C 21.988281 62.605469 25.40625 58.910156 28.769531 60.109375 C 30.710938 60.800781 32.160156 62.722656 32.160156 64.605469 C 32.160156 66.390625 31.066406 68.734375 29.917969 69.398438 C 28.507812 70.214844 26.03125 69.980469 24.773438 68.914062 Z M 29.242188 66.25 C 30.179688 64.703125 29.722656 63.140625 28.207031 62.730469 C 26.671875 62.3125 25.621094 63.066406 25.441406 64.714844 C 25.144531 67.421875 27.863281 68.523438 29.242188 66.25 Z M 29.242188 66.25 "/>
<path style=" stroke:none;fill-rule:nonzero;fill:rgb(23.921569%,91.372549%,15.686275%);fill-opacity:1;" d="M 29.742188 78.878906 C 29.050781 78.128906 29.558594 77.191406 31.566406 75.539062 C 33.5 73.945312 33.75 73.859375 34.398438 74.566406 C 35.042969 75.269531 34.933594 75.515625 33.199219 77.273438 C 31.367188 79.128906 30.390625 79.582031 29.742188 78.878906 Z M 29.742188 78.878906 "/>
<path style=" stroke:none;fill-rule:nonzero;fill:rgb(23.921569%,91.372549%,15.686275%);fill-opacity:1;" d="M 38.507812 69.78125 C 36.964844 68.910156 35.570312 66.015625 35.933594 64.4375 C 36.09375 63.757812 36.765625 62.613281 37.429688 61.898438 C 40.074219 59.039062 44.855469 61.164062 44.855469 65.203125 C 44.855469 68.601562 41.160156 71.269531 38.507812 69.78125 Z M 42.378906 66.441406 C 42.886719 65.558594 42.175781 63.613281 41.226562 63.289062 C 39.265625 62.617188 37.726562 64.089844 38.3125 66.082031 C 38.832031 67.855469 41.441406 68.085938 42.378906 66.441406 Z M 42.378906 66.441406 "/>
<path style=" stroke:none;fill-rule:nonzero;fill:rgb(23.921569%,91.372549%,15.686275%);fill-opacity:1;" d="M 53.050781 91.160156 C 49.691406 88.105469 52.917969 82.519531 56.980469 84.363281 C 59.671875 85.585938 60.167969 88.699219 58.039062 90.996094 C 56.394531 92.773438 54.878906 92.824219 53.050781 91.160156 Z M 56.117188 89.550781 C 56.449219 89.320312 56.65625 88.609375 56.570312 87.964844 C 56.378906 86.503906 54.257812 86.269531 54.003906 87.683594 C 53.660156 89.609375 54.695312 90.523438 56.117188 89.550781 Z M 56.117188 89.550781 "/>
<path style=" stroke:none;fill-rule:nonzero;fill:rgb(23.921569%,91.372549%,15.686275%);fill-opacity:1;" d="M 54.027344 77.613281 C 53.207031 76.527344 52.074219 73.15625 52.308594 72.496094 C 52.800781 71.109375 54 71.941406 55.058594 74.40625 C 55.863281 76.28125 56.023438 77.121094 55.660156 77.589844 C 55.050781 78.386719 54.617188 78.394531 54.027344 77.613281 Z M 54.027344 77.613281 "/>
<path style=" stroke:none;fill-rule:nonzero;fill:rgb(23.921569%,91.372549%,15.686275%);fill-opacity:1;" d="M 44.167969 88.492188 C 42.960938 85.917969 43.003906 85.082031 44.351562 85.082031 C 45.273438 85.082031 47.425781 89.546875 46.925781 90.417969 C 46.273438 91.558594 45.28125 90.867188 44.167969 88.492188 Z M 44.167969 88.492188 "/>
<path style=" stroke:none;fill-rule:nonzero;fill:rgb(23.921569%,91.372549%,15.686275%);fill-opacity:1;" d="M 73.117188 88.390625 C 71.722656 88.132812 70.667969 87.65625 70.507812 87.210938 C 70.027344 85.851562 70.730469 85.449219 73.03125 85.78125 C 75.835938 86.183594 76.59375 86.5 76.59375 87.277344 C 76.59375 88.480469 75.503906 88.832031 73.117188 88.390625 Z M 73.117188 88.390625 "/>
<path style=" stroke:none;fill-rule:nonzero;fill:rgb(23.921569%,91.372549%,15.686275%);fill-opacity:1;" d="M 69.476562 77.492188 C 68.941406 77.085938 68.273438 76.003906 67.992188 75.082031 C 67.304688 72.828125 68.285156 70.261719 70.257812 69.160156 C 72.03125 68.167969 73.644531 68.523438 75.347656 70.273438 C 77.078125 72.050781 77.101562 75.097656 75.398438 76.933594 C 74.007812 78.4375 71.089844 78.710938 69.476562 77.492188 Z M 73.78125 75.191406 C 74.480469 74.433594 74.480469 72.714844 73.78125 71.957031 C 72.828125 70.929688 70.714844 71.238281 70.292969 72.472656 C 69.878906 73.664062 70.121094 74.832031 70.894531 75.402344 C 71.640625 75.957031 73.175781 75.84375 73.78125 75.191406 Z M 73.78125 75.191406 "/>
<path style=" stroke:none;fill-rule:nonzero;fill:rgb(23.921569%,91.372549%,15.686275%);fill-opacity:1;" d="M 80.222656 82.667969 C 80.222656 81.566406 83.234375 78.714844 84.40625 78.714844 C 85.808594 78.714844 85.296875 80.519531 83.441406 82.101562 C 81.417969 83.835938 80.222656 84.046875 80.222656 82.667969 Z M 80.222656 82.667969 "/>
<path style=" stroke:none;fill-rule:nonzero;fill:rgb(23.921569%,91.372549%,15.686275%);fill-opacity:1;" d="M 78.554688 60.253906 C 77.3125 59.996094 76.410156 58.859375 76.84375 58.105469 C 77.0625 57.722656 78 57.625 79.667969 57.8125 C 82.390625 58.117188 83.210938 58.644531 82.789062 59.828125 C 82.523438 60.578125 80.882812 60.746094 78.554688 60.253906 Z M 78.554688 60.253906 "/>
<path style=" stroke:none;fill-rule:nonzero;fill:rgb(23.921569%,91.372549%,15.686275%);fill-opacity:1;" d="M 88.882812 69.097656 C 87.015625 67.28125 86.632812 64.863281 87.871094 62.726562 C 89.84375 59.328125 94.492188 59.671875 95.90625 63.324219 C 97.199219 66.671875 95.515625 69.75 92.117188 70.242188 C 90.597656 70.460938 90.105469 70.289062 88.882812 69.097656 Z M 93.277344 67.355469 C 94.027344 66.546875 93.960938 64.269531 93.167969 63.558594 C 91.105469 61.707031 88.164062 64.808594 89.957031 66.949219 C 90.886719 68.058594 92.449219 68.25 93.277344 67.355469 Z M 93.277344 67.355469 "/>
<path style=" stroke:none;fill-rule:nonzero;fill:rgb(23.921569%,91.372549%,15.686275%);fill-opacity:1;" d="M 91.957031 54.976562 C 89.121094 53.28125 89.316406 48.902344 92.292969 47.5625 C 95.988281 45.894531 99.105469 50.703125 96.429688 53.9375 C 95.140625 55.496094 93.476562 55.882812 91.957031 54.976562 Z M 94.957031 51.289062 C 94.957031 50.394531 94.683594 50.023438 93.933594 49.910156 C 92.820312 49.738281 92.1875 50.789062 92.636719 52.058594 C 92.800781 52.519531 93.320312 52.765625 93.933594 52.671875 C 94.683594 52.558594 94.957031 52.1875 94.957031 51.289062 Z M 94.957031 51.289062 "/>
<path style=" stroke:none;fill-rule:nonzero;fill:rgb(23.921569%,91.372549%,15.686275%);fill-opacity:1;" d="M 89.070312 36.96875 C 86.710938 36.519531 86.027344 35.941406 86.449219 34.753906 C 86.644531 34.203125 87.203125 34.113281 88.90625 34.359375 C 91.867188 34.78125 92.460938 35.074219 92.460938 36.109375 C 92.460938 37.292969 91.734375 37.480469 89.070312 36.96875 Z M 89.070312 36.96875 "/>
<path style=" stroke:none;fill-rule:nonzero;fill:rgb(23.921569%,91.372549%,15.686275%);fill-opacity:1;" d="M 78.878906 31.304688 C 77.191406 29.484375 77.058594 27.386719 78.519531 25.632812 C 80.074219 23.769531 82.410156 23.738281 84.09375 25.558594 C 86.25 27.886719 84.894531 31.832031 81.710938 32.492188 C 80.496094 32.746094 80.03125 32.550781 78.878906 31.304688 Z M 82.453125 29.320312 C 83.109375 27.996094 82.054688 26.574219 80.753906 27.023438 C 79.800781 27.347656 79.371094 29.152344 80.070312 29.90625 C 80.664062 30.546875 82.011719 30.214844 82.453125 29.320312 Z M 82.453125 29.320312 "/>
<path style=" stroke:none;fill-rule:nonzero;fill:rgb(23.921569%,91.372549%,15.686275%);fill-opacity:1;" d="M 77.9375 40.882812 C 76.734375 38.777344 76.367188 37.136719 76.960938 36.496094 C 77.78125 35.609375 78.726562 36.433594 79.546875 38.746094 C 80.804688 42.316406 79.640625 43.863281 77.9375 40.882812 Z M 77.9375 40.882812 "/>
<path style=" stroke:none;fill-rule:nonzero;fill:rgb(23.921569%,91.372549%,15.686275%);fill-opacity:1;" d="M 67.777344 46.925781 C 67.335938 46.15625 67.949219 45.214844 69.824219 43.777344 C 73 41.34375 74.257812 43.25 71.199219 45.863281 C 69.421875 47.382812 68.25 47.75 67.777344 46.925781 Z M 67.777344 46.925781 "/>
<path style=" stroke:none;fill-rule:nonzero;fill:rgb(23.921569%,91.372549%,15.686275%);fill-opacity:1;" d="M 58.585938 35.277344 C 57.019531 34.949219 55.285156 32.386719 55.285156 30.402344 C 55.285156 28 57.324219 25.824219 59.574219 25.824219 C 61.785156 25.824219 63.335938 27.03125 63.945312 29.226562 C 64.609375 31.628906 63.574219 33.9375 61.390625 34.921875 C 60.542969 35.304688 59.789062 35.589844 59.71875 35.550781 C 59.648438 35.515625 59.140625 35.390625 58.585938 35.277344 Z M 61.085938 32.09375 C 61.785156 31.335938 61.785156 29.617188 61.085938 28.859375 C 60.386719 28.105469 58.792969 28.105469 58.09375 28.859375 C 56.824219 30.234375 57.78125 32.679688 59.589844 32.679688 C 60.113281 32.679688 60.789062 32.417969 61.085938 32.09375 Z M 61.085938 32.09375 "/>
<path style=" stroke:none;fill-rule:nonzero;fill:rgb(23.921569%,91.372549%,15.686275%);fill-opacity:1;" d="M 62.957031 21.945312 C 60.441406 19.226562 61.789062 14.160156 65.25 13.339844 C 67.160156 12.882812 69.558594 14.261719 70.46875 16.335938 C 72.671875 21.347656 66.597656 25.878906 62.957031 21.945312 Z M 68.351562 18.761719 C 68.542969 17.046875 67.726562 16.03125 66.164062 16.03125 C 64.59375 16.03125 63.792969 17.046875 63.980469 18.804688 C 64.300781 21.808594 68.019531 21.773438 68.351562 18.761719 Z M 68.351562 18.761719 "/>
<path style=" stroke:none;fill-rule:nonzero;fill:rgb(23.921569%,91.372549%,15.686275%);fill-opacity:1;" d="M 53.039062 20.976562 C 51.996094 18.570312 52.0625 17.5 53.261719 17.5 C 54.011719 17.5 56.355469 22.203125 55.953125 22.902344 C 55.273438 24.09375 54.035156 23.273438 53.039062 20.976562 Z M 53.039062 20.976562 "/>
</g>
</svg>
