<svg xmlns="http://www.w3.org/2000/svg" width="80" height="120" xml:space="preserve"><linearGradient id="a" gradientUnits="userSpaceOnUse" x1="40.001" y1="59.392" x2="40.001" y2="0"><stop offset="0" style="stop-color:#949699"/><stop offset=".002" style="stop-color:#9a9c9f"/><stop offset=".009" style="stop-color:#b2b4b6"/><stop offset=".017" style="stop-color:#c3c5c6"/><stop offset=".025" style="stop-color:#cdcfd0"/><stop offset=".036" style="stop-color:#d0d2d3"/><stop offset=".305" style="stop-color:#e0e1e2"/><stop offset=".614" style="stop-color:#eaeaeb"/><stop offset="1" style="stop-color:#ededee"/></linearGradient><path fill="url(#a)" d="M80 6.33C80 2.833 76.705 0 72.636 0H7.363C3.296 0 0 2.833 0 6.33v53.062h80V6.33z"/><linearGradient id="b" gradientUnits="userSpaceOnUse" x1="40.001" y1="120" x2="40.001" y2="59.999"><stop offset="0" style="stop-color:#dfe0e1"/><stop offset=".186" style="stop-color:#e8e8e9"/><stop offset=".535" style="stop-color:#f2f2f3"/><stop offset=".97" style="stop-color:#f5f5f6"/><stop offset=".974" style="stop-color:#f0f0f1"/><stop offset=".985" style="stop-color:#e6e7e8"/><stop offset="1" style="stop-color:#e3e4e5"/></linearGradient><path fill="url(#b)" d="M0 59.999v53.604C0 117.136 3.296 120 7.363 120h65.272c4.069 0 7.364-2.864 7.364-6.397V59.999H0z"/><path fill="#3B3A3C" d="M3.242 57.876c0-.564-.724-1.024-1.622-1.024-.894 0-1.62.46-1.62 1.024v4.241c0 .566.726 1.022 1.62 1.022.898 0 1.622-.456 1.622-1.022v-4.241z"/><linearGradient id="c" gradientUnits="userSpaceOnUse" x1="1.585" y1="63.076" x2="1.585" y2="56.922"><stop offset="0" style="stop-color:#3e3e3f"/><stop offset=".287" style="stop-color:#404041"/><stop offset=".39" style="stop-color:#464748"/><stop offset=".464" style="stop-color:#525253"/><stop offset=".523" style="stop-color:#626364"/><stop offset=".574" style="stop-color:#78797a"/><stop offset=".618" style="stop-color:#919395"/><stop offset=".635" style="stop-color:#9d9fa1"/><stop offset="1" style="stop-color:#3b3a3c"/></linearGradient><path fill="url(#c)" d="M3.169 57.923c0-.555-.708-1.002-1.584-1.002-.876 0-1.585.447-1.585 1.002v4.15c0 .556.709 1.003 1.585 1.003.875 0 1.584-.447 1.584-1.003v-4.15z"/><path fill="#3B3A3C" d="M76.756 62.12c0 .565.73 1.024 1.627 1.024.896 0 1.617-.459 1.617-1.024v-4.241c0-.566-.722-1.023-1.617-1.023-.896 0-1.627.457-1.627 1.023v4.241z"/><linearGradient id="d" gradientUnits="userSpaceOnUse" x1="-1153.92" y1="-624.197" x2="-1153.92" y2="-618.041" gradientTransform="rotate(180 -537.751 -280.561)"><stop offset="0" style="stop-color:#3e3e3f"/><stop offset=".287" style="stop-color:#404041"/><stop offset=".39" style="stop-color:#464748"/><stop offset=".464" style="stop-color:#525253"/><stop offset=".523" style="stop-color:#626364"/><stop offset=".574" style="stop-color:#78797a"/><stop offset=".618" style="stop-color:#919395"/><stop offset=".635" style="stop-color:#9d9fa1"/><stop offset="1" style="stop-color:#3b3a3c"/></linearGradient><path fill="url(#d)" d="M76.836 62.073c0 .556.708 1.001 1.583 1.001.873 0 1.581-.445 1.581-1.001v-4.152c0-.555-.708-1.002-1.581-1.002-.875 0-1.583.447-1.583 1.002v4.152z"/><linearGradient id="e" gradientUnits="userSpaceOnUse" x1="-1067.818" y1="-765.518" x2="-1067.818" y2="-735.486" gradientTransform="rotate(180 -513.917 -323.48)"><stop offset="0" style="stop-color:#dfe0e1"/><stop offset=".188" style="stop-color:#e8e8e9"/><stop offset=".541" style="stop-color:#f2f2f3"/><stop offset=".982" style="stop-color:#f5f5f6"/><stop offset=".984" style="stop-color:#f0f0f1"/><stop offset=".991" style="stop-color:#e6e7e8"/><stop offset="1" style="stop-color:#e3e4e5"/></linearGradient><path fill="url(#e)" d="M8.652 118.557H71.31c3.903 0 7.072-2.861 7.072-6.393v-23.64c-18.099 10.031-48.811 21.952-76.798 8.323v15.316c.001 3.532 3.166 6.394 7.068 6.394z"/><linearGradient id="f" gradientUnits="userSpaceOnUse" x1="-1067.818" y1="-703.813" x2="-1067.818" y2="-673.781" gradientTransform="rotate(180 -513.917 -323.48)"><stop offset="0" style="stop-color:#949699"/><stop offset=".002" style="stop-color:#9a9c9f"/><stop offset=".009" style="stop-color:#b2b4b6"/><stop offset=".017" style="stop-color:#c3c5c6"/><stop offset=".025" style="stop-color:#cdcfd0"/><stop offset=".036" style="stop-color:#d0d2d3"/><stop offset=".305" style="stop-color:#e0e1e2"/><stop offset=".614" style="stop-color:#eaeaeb"/><stop offset="1" style="stop-color:#ededee"/></linearGradient><path fill="url(#f)" d="M8.652 56.852H71.31c3.903 0 7.072-2.861 7.072-6.392V26.82C60.283 36.854 29.571 48.77 1.584 35.147V50.46c.001 3.531 3.166 6.392 7.068 6.392z"/><path fill="#F1F1F2" d="M3.242 59.392h73.514v1.114H3.242z"/></svg>